<?xml version="1.0" encoding="iso-8859-1"?>
<!-- Generator: Adobe Illustrator 19.1.0, SVG Export Plug-In . SVG Version: 6.00 Build 0)  -->
<svg version="1.1" id="Layer_1" xmlns="http://www.w3.org/2000/svg" xmlns:xlink="http://www.w3.org/1999/xlink" x="0px" y="0px"
	 viewBox="0 0 597.171 592.013" style="enable-background:new 0 0 597.171 592.013;" xml:space="preserve">
<polygon style="fill:#754C28;" points="213.575,351.145 210.482,351.145 210.482,347.774 208.796,347.774 208.796,351.145 
	205.705,351.145 205.705,352.831 208.796,352.831 208.796,366.881 210.482,366.881 210.482,352.831 213.575,352.831 "/>
<polygon style="fill:#FDD0A4;" points="308.033,490.855 308.033,592.013 329.727,592.013 329.727,523.076 333.696,523.076 
	333.696,517.831 336.92,517.831 336.92,512.585 345.85,512.585 345.85,517.831 349.076,517.831 349.076,523.076 353.041,523.076 
	353.041,592.013 374.007,592.013 374.007,490.855 "/>
<g>
	<rect x="309.311" y="268.68" style="fill:#FDD0A4;" width="59.808" height="233.039"/>
	<rect x="316.99" y="237.21" style="fill:#FDD0A4;" width="44.453" height="32.221"/>
	<g>
		<rect x="321.434" y="245.076" style="fill:#754C28;" width="8.893" height="20.231"/>
		<rect x="334.772" y="245.076" style="fill:#754C28;" width="8.891" height="20.231"/>
		<rect x="348.111" y="245.076" style="fill:#754C28;" width="8.891" height="20.231"/>
	</g>
	<rect x="322.242" y="229.716" style="fill:#FDD0A4;" width="33.949" height="12.739"/>
	<rect x="336.397" y="212.106" style="fill:#754C28;" width="5.657" height="12.739"/>
	<rect x="327.495" y="224.097" style="fill:#FDD0A4;" width="23.441" height="12.738"/>
	<rect x="332.752" y="218.102" style="fill:#FDD0A4;" width="12.931" height="12.738"/>
	<rect x="309.724" y="268.306" style="fill:#754C28;" width="59.003" height="2.249"/>
	<g>
		<rect x="321.033" y="281.266" style="fill:#754C28;" width="5.387" height="22.48"/>
		<rect x="328.778" y="281.266" style="fill:#754C28;" width="5.385" height="22.48"/>
		<rect x="336.524" y="281.266" style="fill:#754C28;" width="5.385" height="22.48"/>
		<rect x="344.268" y="281.266" style="fill:#754C28;" width="5.387" height="22.48"/>
		<rect x="352.014" y="281.266" style="fill:#754C28;" width="5.389" height="22.48"/>
	</g>
	<rect x="309.716" y="315.255" style="fill:#754C28;" width="59.003" height="1.265"/>
	<g>
		<rect x="327.332" y="325.477" style="fill:#754C28;" width="4.473" height="22.479"/>
		<rect x="333.764" y="325.477" style="fill:#754C28;" width="4.477" height="22.479"/>
		<rect x="340.2" y="325.477" style="fill:#754C28;" width="4.473" height="22.479"/>
		<rect x="346.631" y="325.477" style="fill:#754C28;" width="4.477" height="22.479"/>
	</g>
	<g>
		<rect x="330.797" y="374.188" style="fill:#754C28;" width="4.346" height="18.733"/>
		<rect x="337.046" y="374.188" style="fill:#754C28;" width="4.344" height="18.733"/>
		<rect x="343.293" y="374.188" style="fill:#754C28;" width="4.344" height="18.733"/>
	</g>
	<rect x="309.716" y="354.969" style="fill:#754C28;" width="59.003" height="1.265"/>
	<rect x="309.716" y="399.928" style="fill:#754C28;" width="59.003" height="1.266"/>
	<rect x="309.716" y="439.643" style="fill:#754C28;" width="59.003" height="1.265"/>
	<g>
		<rect x="333.923" y="415.775" style="fill:#754C28;" width="4.344" height="18.733"/>
		<rect x="340.171" y="415.775" style="fill:#754C28;" width="4.344" height="18.733"/>
	</g>
	<g>
		<rect x="333.923" y="463.127" style="fill:#754C28;" width="4.344" height="18.733"/>
		<rect x="340.171" y="463.127" style="fill:#754C28;" width="4.344" height="18.733"/>
	</g>
</g>
<rect x="307.986" y="488.981" style="fill:#754C28;" width="66.734" height="2.247"/>
<rect x="208.514" y="292.471" style="fill:#FFFFFF;" width="18.317" height="18.316"/>
<rect x="226.831" y="286.365" style="fill:#FFFFFF;" width="18.315" height="18.316"/>
<rect x="215.637" y="281.278" style="fill:#FFFFFF;" width="18.315" height="18.317"/>
<rect x="511.033" y="198.653" style="fill:#FFFFFF;" width="19.451" height="19.449"/>
<rect x="525.082" y="192.169" style="fill:#FFFFFF;" width="19.447" height="19.45"/>
<rect x="432.098" y="244.49" style="fill:#EFC319;" width="28.712" height="28.712"/>
<rect x="72.523" y="365.258" style="fill:#FFFFFF;" width="19.453" height="19.45"/>
<rect x="86.576" y="358.775" style="fill:#FFFFFF;" width="19.445" height="19.448"/>
<rect x="404.594" y="318.161" style="fill:#FFFFFF;" width="19.451" height="19.451"/>
<polygon style="fill:#FFDFAA;" points="298.816,437.655 298.816,427.473 289.7,427.473 289.7,419.307 278.304,419.307 
	278.304,412.162 266.521,412.162 266.521,403.384 253.222,403.384 253.222,383.175 245.792,383.175 245.792,377.817 
	242.081,377.817 242.081,374.494 237.445,374.494 237.445,371.586 232.654,371.586 232.654,368.016 226.954,368.016 
	226.954,364.136 222.468,364.136 222.468,359.077 197.034,359.077 197.034,364.136 190.308,364.136 190.308,368.016 
	186.889,368.016 186.889,371.586 182.094,371.586 182.094,374.494 176.836,374.494 176.836,377.817 172.511,377.817 
	172.511,383.175 164.321,383.175 164.321,403.384 154.063,403.384 154.063,412.162 142.284,412.162 142.284,419.307 
	129.367,419.307 129.367,427.473 118.728,427.473 118.728,437.655 106.979,437.655 106.979,591.6 309.857,591.6 309.857,437.655 "/>
<polygon style="fill:#FDD0A4;" points="248.219,517.292 248.219,514.347 246.162,514.347 246.162,510.875 243.983,510.875 
	243.983,508.098 238.072,508.098 238.072,510.875 235.889,510.875 235.889,514.347 233.836,514.347 233.836,517.292 
	232.165,517.292 232.165,536.564 249.89,536.564 249.89,517.292 "/>
<g>
	<rect x="251.103" y="517.292" style="fill:#FDD0A4;" width="17.723" height="19.271"/>
	<rect x="252.774" y="514.347" style="fill:#FDD0A4;" width="14.384" height="5.902"/>
	<rect x="254.829" y="510.875" style="fill:#FDD0A4;" width="10.273" height="6.249"/>
	<rect x="257.012" y="508.098" style="fill:#FDD0A4;" width="5.907" height="4.165"/>
</g>
<g>
	<rect x="270.042" y="517.292" style="fill:#FDD0A4;" width="17.723" height="19.271"/>
	<rect x="271.71" y="514.347" style="fill:#FDD0A4;" width="14.385" height="5.902"/>
	<rect x="273.767" y="510.875" style="fill:#FDD0A4;" width="10.271" height="6.249"/>
	<rect x="275.949" y="508.098" style="fill:#FDD0A4;" width="5.909" height="4.165"/>
</g>
<g>
	<rect x="288.98" y="517.292" style="fill:#FDD0A4;" width="17.723" height="19.271"/>
	<rect x="290.649" y="514.347" style="fill:#FDD0A4;" width="14.383" height="5.902"/>
	<rect x="292.704" y="510.875" style="fill:#FDD0A4;" width="10.275" height="6.249"/>
	<rect x="294.89" y="508.098" style="fill:#FDD0A4;" width="5.905" height="4.165"/>
</g>
<g>
	<rect x="189.427" y="504.62" style="fill:#FDD0A4;" width="38.776" height="31.194"/>
	<rect x="193.079" y="499.854" style="fill:#FDD0A4;" width="31.47" height="9.554"/>
	<rect x="197.573" y="494.234" style="fill:#FDD0A4;" width="22.481" height="10.116"/>
	<rect x="202.351" y="489.738" style="fill:#FDD0A4;" width="12.926" height="6.745"/>
</g>
<rect x="107.094" y="535.815" style="fill:#FDD0A4;" width="203.44" height="56.199"/>
<rect x="205.749" y="377.184" style="fill:#FDD0A4;" width="7.587" height="16.017"/>
<rect x="194.481" y="506.871" style="fill:#754C28;" width="28.664" height="29.504"/>
<rect x="273.196" y="524.342" style="fill:#754C28;" width="11.242" height="11.614"/>
<rect x="197.573" y="502.661" style="fill:#754C28;" width="22.481" height="10.116"/>
<rect x="202.351" y="498.165" style="fill:#754C28;" width="12.926" height="6.744"/>
<g>
	<rect x="167.965" y="517.292" style="fill:#FDD0A4;" width="17.721" height="19.271"/>
	<rect x="169.636" y="514.347" style="fill:#FDD0A4;" width="14.382" height="5.902"/>
	<rect x="171.689" y="510.875" style="fill:#FDD0A4;" width="10.275" height="6.249"/>
	<rect x="173.874" y="508.098" style="fill:#FDD0A4;" width="5.907" height="4.165"/>
</g>
<g>
	<rect x="149.027" y="517.292" style="fill:#FDD0A4;" width="17.723" height="19.271"/>
	<rect x="150.696" y="514.347" style="fill:#FDD0A4;" width="14.384" height="5.902"/>
	<rect x="152.753" y="510.875" style="fill:#FDD0A4;" width="10.273" height="6.249"/>
	<rect x="154.932" y="508.098" style="fill:#FDD0A4;" width="5.911" height="4.165"/>
</g>
<g>
	<rect x="130.089" y="517.292" style="fill:#FDD0A4;" width="17.725" height="19.271"/>
	<rect x="131.759" y="514.347" style="fill:#FDD0A4;" width="14.382" height="5.902"/>
	<rect x="133.813" y="510.875" style="fill:#FDD0A4;" width="10.275" height="6.249"/>
	<rect x="136" y="508.098" style="fill:#FDD0A4;" width="5.907" height="4.165"/>
</g>
<g>
	<rect x="111.151" y="517.292" style="fill:#FDD0A4;" width="17.725" height="19.271"/>
	<rect x="112.819" y="514.347" style="fill:#FDD0A4;" width="14.385" height="5.902"/>
	<rect x="114.877" y="510.875" style="fill:#FDD0A4;" width="10.271" height="6.249"/>
	<rect x="117.058" y="508.098" style="fill:#FDD0A4;" width="5.909" height="4.165"/>
</g>
<rect x="133.417" y="523.217" style="fill:#754C28;" width="11.241" height="11.614"/>
<g>
	<rect x="197.539" y="440.273" style="fill:#FDD0A4;" width="24.421" height="20.983"/>
	<rect x="199.839" y="437.066" style="fill:#FDD0A4;" width="19.819" height="6.428"/>
	<rect x="202.671" y="433.285" style="fill:#FDD0A4;" width="14.158" height="6.805"/>
	<rect x="205.679" y="430.26" style="fill:#FDD0A4;" width="8.142" height="4.536"/>
</g>
<g>
	<g>
		<polygon style="fill:#CCE3EF;" points="216.507,440.498 216.507,437.045 212.949,437.045 212.949,434.13 206.665,434.13 
			206.665,437.045 203.111,437.045 203.111,440.498 200.266,440.498 200.266,458.186 219.356,458.186 219.356,440.498 		"/>
		<path style="fill:#754C28;" d="M219.58,458.41H200.04v-18.136h2.843v-3.454h3.557v-2.915h6.736v2.915h3.556v3.454h2.847V458.41z
			 M200.49,457.961h18.639v-17.237h-2.843v-3.453h-3.557v-2.915h-5.835v2.915h-3.558v3.453h-2.845V457.961z"/>
	</g>
	<g>
		<rect x="203.108" y="440.651" style="fill:#754C28;" width="0.451" height="17.609"/>
	</g>
	<g>
		<rect x="206.443" y="436.904" style="fill:#754C28;" width="0.451" height="21.356"/>
	</g>
	<g>
		<rect x="216.455" y="440.932" style="fill:#754C28;" width="0.45" height="17.608"/>
	</g>
	<g>
		<rect x="213.118" y="437.186" style="fill:#754C28;" width="0.451" height="21.309"/>
	</g>
	<g>
		<rect x="209.781" y="434.142" style="fill:#754C28;" width="0.451" height="23.978"/>
	</g>
	<g>
		<rect x="202.725" y="440.252" style="fill:#754C28;" width="14.611" height="0.45"/>
	</g>
	<g>
		<rect x="206.097" y="436.819" style="fill:#754C28;" width="7.587" height="0.45"/>
	</g>
	<g>
		<rect x="200.196" y="443.121" style="fill:#754C28;" width="19.108" height="0.45"/>
	</g>
	<g>
		<rect x="200.336" y="445.991" style="fill:#754C28;" width="19.109" height="0.451"/>
	</g>
	<g>
		<rect x="200.057" y="448.863" style="fill:#754C28;" width="19.107" height="0.45"/>
	</g>
	<g>
		<rect x="200.336" y="451.732" style="fill:#754C28;" width="19.109" height="0.451"/>
	</g>
	<g>
		<rect x="200.196" y="454.602" style="fill:#754C28;" width="19.108" height="0.45"/>
	</g>
</g>
<g>
	<g>
		<rect x="260.27" y="444.805" style="fill:#FDD0A4;" width="16.202" height="14.204"/>
		<rect x="261.796" y="442.635" style="fill:#FDD0A4;" width="13.15" height="4.35"/>
		<rect x="263.676" y="440.076" style="fill:#FDD0A4;" width="9.39" height="4.605"/>
		<rect x="265.672" y="438.027" style="fill:#FDD0A4;" width="5.402" height="3.071"/>
	</g>
	<g>
		<polygon style="fill:#CCE3EF;stroke:#754C28;stroke-width:0.2;stroke-miterlimit:10;" points="272.855,444.957 272.855,442.621 
			270.495,442.621 270.495,440.647 266.325,440.647 266.325,442.621 263.966,442.621 263.966,444.957 262.079,444.957 
			262.079,456.93 274.744,456.93 274.744,444.957 		"/>
		
			<line style="fill:none;stroke:#754C28;stroke-width:0.2;stroke-miterlimit:10;" x1="264.114" y1="445.061" x2="264.114" y2="456.98"/>
		
			<line style="fill:none;stroke:#754C28;stroke-width:0.2;stroke-miterlimit:10;" x1="266.329" y1="442.525" x2="266.329" y2="456.98"/>
		
			<line style="fill:none;stroke:#754C28;stroke-width:0.2;stroke-miterlimit:10;" x1="272.968" y1="445.251" x2="272.968" y2="457.17"/>
		
			<line style="fill:none;stroke:#754C28;stroke-width:0.2;stroke-miterlimit:10;" x1="270.756" y1="442.716" x2="270.756" y2="457.139"/>
		
			<line style="fill:none;stroke:#754C28;stroke-width:0.2;stroke-miterlimit:10;" x1="268.543" y1="440.655" x2="268.543" y2="456.885"/>
		
			<line style="fill:none;stroke:#754C28;stroke-width:0.2;stroke-miterlimit:10;" x1="263.711" y1="444.943" x2="273.401" y2="444.943"/>
		
			<line style="fill:none;stroke:#754C28;stroke-width:0.2;stroke-miterlimit:10;" x1="265.949" y1="442.62" x2="270.981" y2="442.62"/>
		
			<line style="fill:none;stroke:#754C28;stroke-width:0.2;stroke-miterlimit:10;" x1="262.031" y1="446.884" x2="274.707" y2="446.884"/>
		
			<line style="fill:none;stroke:#754C28;stroke-width:0.2;stroke-miterlimit:10;" x1="262.126" y1="448.828" x2="274.803" y2="448.828"/>
		
			<line style="fill:none;stroke:#754C28;stroke-width:0.2;stroke-miterlimit:10;" x1="261.941" y1="450.772" x2="274.617" y2="450.772"/>
		
			<line style="fill:none;stroke:#754C28;stroke-width:0.2;stroke-miterlimit:10;" x1="262.126" y1="452.714" x2="274.803" y2="452.714"/>
		
			<line style="fill:none;stroke:#754C28;stroke-width:0.2;stroke-miterlimit:10;" x1="262.031" y1="454.656" x2="274.707" y2="454.656"/>
	</g>
</g>
<g>
	<g>
		<rect x="145.623" y="444.805" style="fill:#FDD0A4;" width="16.204" height="14.204"/>
		<rect x="147.151" y="442.635" style="fill:#FDD0A4;" width="13.148" height="4.35"/>
		<rect x="149.029" y="440.076" style="fill:#FDD0A4;" width="9.392" height="4.605"/>
		<rect x="151.023" y="438.027" style="fill:#FDD0A4;" width="5.402" height="3.071"/>
	</g>
	<g>
		<polygon style="fill:#CCE3EF;stroke:#754C28;stroke-width:0.2;stroke-miterlimit:10;" points="158.209,444.957 158.209,442.621 
			155.85,442.621 155.85,440.647 151.68,440.647 151.68,442.621 149.321,442.621 149.321,444.957 147.433,444.957 147.433,456.93 
			160.097,456.93 160.097,444.957 		"/>
		
			<line style="fill:none;stroke:#754C28;stroke-width:0.2;stroke-miterlimit:10;" x1="149.468" y1="445.061" x2="149.468" y2="456.98"/>
		
			<line style="fill:none;stroke:#754C28;stroke-width:0.2;stroke-miterlimit:10;" x1="151.68" y1="442.525" x2="151.68" y2="456.98"/>
		
			<line style="fill:none;stroke:#754C28;stroke-width:0.2;stroke-miterlimit:10;" x1="158.323" y1="445.251" x2="158.323" y2="457.17"/>
		
			<line style="fill:none;stroke:#754C28;stroke-width:0.2;stroke-miterlimit:10;" x1="156.109" y1="442.716" x2="156.109" y2="457.139"/>
		
			<line style="fill:none;stroke:#754C28;stroke-width:0.2;stroke-miterlimit:10;" x1="153.896" y1="440.655" x2="153.896" y2="456.885"/>
		
			<line style="fill:none;stroke:#754C28;stroke-width:0.2;stroke-miterlimit:10;" x1="149.064" y1="444.943" x2="158.758" y2="444.943"/>
		
			<line style="fill:none;stroke:#754C28;stroke-width:0.2;stroke-miterlimit:10;" x1="151.303" y1="442.62" x2="156.335" y2="442.62"/>
		
			<line style="fill:none;stroke:#754C28;stroke-width:0.2;stroke-miterlimit:10;" x1="147.388" y1="446.884" x2="160.062" y2="446.884"/>
		
			<line style="fill:none;stroke:#754C28;stroke-width:0.2;stroke-miterlimit:10;" x1="147.481" y1="448.828" x2="160.157" y2="448.828"/>
		
			<line style="fill:none;stroke:#754C28;stroke-width:0.2;stroke-miterlimit:10;" x1="147.294" y1="450.772" x2="159.972" y2="450.772"/>
		
			<line style="fill:none;stroke:#754C28;stroke-width:0.2;stroke-miterlimit:10;" x1="147.481" y1="452.714" x2="160.157" y2="452.714"/>
		
			<line style="fill:none;stroke:#754C28;stroke-width:0.2;stroke-miterlimit:10;" x1="147.388" y1="454.656" x2="160.062" y2="454.656"/>
	</g>
</g>
<g>
	
		<rect x="207.389" y="379.092" style="fill:#CCE3EF;stroke:#231F20;stroke-width:0.2;stroke-miterlimit:10;" width="4.307" height="12.217"/>
	
		<line style="fill:none;stroke:#231F20;stroke-width:0.2;stroke-miterlimit:10;" x1="209.542" y1="379.02" x2="209.542" y2="391.195"/>
	
		<line style="fill:none;stroke:#231F20;stroke-width:0.2;stroke-miterlimit:10;" x1="207.389" y1="381.454" x2="211.695" y2="381.454"/>
	
		<line style="fill:none;stroke:#231F20;stroke-width:0.2;stroke-miterlimit:10;" x1="207.389" y1="383.983" x2="211.695" y2="383.983"/>
	<line style="fill:none;stroke:#231F20;stroke-width:0.2;stroke-miterlimit:10;" x1="207.389" y1="386.7" x2="211.695" y2="386.7"/>
	
		<line style="fill:none;stroke:#231F20;stroke-width:0.2;stroke-miterlimit:10;" x1="207.389" y1="388.947" x2="211.695" y2="388.947"/>
</g>
<circle style="fill:#FDD0A4;" cx="209.265" cy="412.87" r="15.735"/>
<g>
	<circle style="fill:#CCE3EF;stroke:#603813;stroke-width:0.2;stroke-miterlimit:10;" cx="209.542" cy="413.018" r="1.593"/>
	<g>
		<polygon style="fill:#CCE3EF;stroke:#603813;stroke-width:0.2;stroke-miterlimit:10;" points="211.148,399.39 208.315,399.39 
			208.315,405.053 208.804,405.053 208.804,406.516 209.201,406.516 209.201,409.655 210.261,409.655 210.261,406.516 
			210.661,406.516 210.661,405.053 211.148,405.053 		"/>
		<polygon style="fill:#CCE3EF;stroke:#603813;stroke-width:0.2;stroke-miterlimit:10;" points="205.814,399.812 203.194,400.896 
			205.359,406.127 205.814,405.943 206.371,407.294 206.739,407.139 207.94,410.041 208.922,409.635 207.72,406.733 
			208.084,406.581 207.527,405.23 207.979,405.046 		"/>
		<polygon style="fill:#CCE3EF;stroke:#603813;stroke-width:0.2;stroke-miterlimit:10;" points="201.041,402.247 199.036,404.25 
			203.043,408.253 203.385,407.908 204.419,408.942 204.7,408.662 206.926,410.88 207.675,410.131 205.451,407.911 205.734,407.628 
			204.7,406.595 205.046,406.249 		"/>
		<polygon style="fill:#CCE3EF;stroke:#603813;stroke-width:0.2;stroke-miterlimit:10;" points="197.565,406.32 196.483,408.936 
			201.715,411.104 201.899,410.654 203.252,411.212 203.402,410.844 206.303,412.047 206.713,411.066 203.811,409.863 
			203.964,409.496 202.61,408.937 202.799,408.486 		"/>
		<polygon style="fill:#CCE3EF;stroke:#603813;stroke-width:0.2;stroke-miterlimit:10;" points="195.913,411.414 195.913,414.246 
			201.574,414.246 201.574,413.758 203.041,413.758 203.037,413.361 206.179,413.361 206.179,412.296 203.041,412.299 
			203.037,411.901 201.574,411.901 201.574,411.414 		"/>
		<polygon style="fill:#CCE3EF;stroke:#603813;stroke-width:0.2;stroke-miterlimit:10;" points="196.335,416.75 197.421,419.369 
			202.651,417.199 202.466,416.751 203.818,416.191 203.661,415.822 206.567,414.623 206.156,413.64 203.257,414.844 
			203.108,414.473 201.753,415.035 201.567,414.583 		"/>
		<polygon style="fill:#CCE3EF;stroke:#603813;stroke-width:0.2;stroke-miterlimit:10;" points="198.769,421.522 200.773,423.524 
			204.776,419.516 204.434,419.176 205.466,418.14 205.181,417.861 207.405,415.64 206.654,414.887 204.438,417.11 204.151,416.827 
			203.121,417.863 202.776,417.517 		"/>
		<polygon style="fill:#CCE3EF;stroke:#603813;stroke-width:0.2;stroke-miterlimit:10;" points="202.843,424.997 205.459,426.079 
			207.627,420.847 207.176,420.662 207.738,419.311 207.366,419.16 208.571,416.258 207.59,415.851 206.389,418.752 
			206.021,418.599 205.461,419.95 205.011,419.764 		"/>
		<polygon style="fill:#CCE3EF;stroke:#603813;stroke-width:0.2;stroke-miterlimit:10;" points="207.936,426.648 210.766,426.648 
			210.766,420.985 210.28,420.985 210.282,419.52 209.88,419.525 209.882,416.383 208.822,416.383 208.822,419.52 208.423,419.522 
			208.423,420.985 207.936,420.985 		"/>
		<polygon style="fill:#CCE3EF;stroke:#603813;stroke-width:0.2;stroke-miterlimit:10;" points="213.277,426.226 215.893,425.141 
			213.725,419.908 213.277,420.095 212.714,418.744 212.35,418.901 211.146,415.997 210.165,416.403 211.368,419.303 
			210.998,419.455 211.556,420.808 211.105,420.992 		"/>
		<polygon style="fill:#CCE3EF;stroke:#603813;stroke-width:0.2;stroke-miterlimit:10;" points="218.046,423.791 220.044,421.788 
			216.043,417.786 215.698,418.128 214.664,417.095 214.385,417.379 212.167,415.159 211.414,415.908 213.634,418.124 
			213.353,418.409 214.385,419.444 214.041,419.788 		"/>
		<polygon style="fill:#CCE3EF;stroke:#603813;stroke-width:0.2;stroke-miterlimit:10;" points="221.522,419.719 222.601,417.103 
			217.369,414.934 217.184,415.384 215.835,414.824 215.686,415.196 212.783,413.991 212.374,414.973 215.273,416.173 
			215.125,416.541 216.474,417.101 216.285,417.552 		"/>
		<polygon style="fill:#CCE3EF;stroke:#603813;stroke-width:0.2;stroke-miterlimit:10;" points="223.174,414.626 223.174,411.794 
			217.508,411.793 217.508,412.279 216.046,412.279 216.05,412.678 212.907,412.676 212.907,413.74 216.046,413.738 
			216.046,414.136 217.51,414.136 217.508,414.626 		"/>
		<polygon style="fill:#CCE3EF;stroke:#603813;stroke-width:0.2;stroke-miterlimit:10;" points="222.747,409.29 221.668,406.673 
			216.433,408.839 216.62,409.289 215.266,409.846 215.427,410.216 212.52,411.416 212.925,412.397 215.83,411.194 215.98,411.564 
			217.33,411.003 217.515,411.456 		"/>
		<polygon style="fill:#CCE3EF;stroke:#603813;stroke-width:0.2;stroke-miterlimit:10;" points="220.314,404.52 218.316,402.516 
			214.311,406.52 214.653,406.863 213.617,407.897 213.906,408.176 211.677,410.398 212.433,411.15 214.65,408.929 214.933,409.21 
			215.967,408.175 216.311,408.523 		"/>
		<polygon style="fill:#CCE3EF;stroke:#603813;stroke-width:0.2;stroke-miterlimit:10;" points="216.244,401.042 213.627,399.959 
			211.46,405.189 211.908,405.376 211.347,406.727 211.717,406.877 210.517,409.777 211.497,410.187 212.696,407.287 
			213.066,407.437 213.623,406.085 214.076,406.275 		"/>
	</g>
</g>
<polygon style="fill:#F1C79D;" points="324.738,541.265 324.738,538.32 323.378,538.32 323.378,534.848 321.932,534.848 
	321.932,532.07 318.021,532.07 318.021,534.848 316.576,534.848 316.576,538.32 315.214,538.32 315.214,541.265 314.11,541.265 
	314.11,560.538 325.843,560.538 325.843,541.265 "/>
<polygon style="fill:#F1C79D;" points="329.811,523.45 333.764,523.45 333.764,518.206 336.977,518.206 336.977,512.961 
	345.883,512.961 345.883,518.206 349.099,518.206 349.099,523.45 353.059,523.45 353.067,491.269 329.811,491.269 "/>
<rect x="314.267" y="564.889" style="fill:#F1C79D;" width="4.279" height="21.918"/>
<rect x="321.149" y="564.889" style="fill:#F1C79D;" width="4.277" height="21.918"/>
<g>
	<g>
		<g>
			<rect x="196.067" y="513.553" style="fill:#FFFFFF;" width="8.38" height="27.945"/>
			<rect x="197.678" y="511.481" style="fill:#404041;" width="6.262" height="2.236"/>
			<rect x="198.662" y="505.731" style="fill:#CDA18B;" width="6.172" height="8.112"/>
			<g>
				<rect x="204.288" y="524.019" style="fill:#CDA18B;" width="1.698" height="1.821"/>
				<rect x="205.538" y="524.319" style="fill:#CDA18B;" width="0.538" height="0.536"/>
			</g>
			<rect x="204.401" y="514.075" style="fill:#CDA18B;" width="1.676" height="10.2"/>
			<rect x="201.211" y="541.498" style="fill:#CDA18B;" width="1.7" height="1.521"/>
			<rect x="197.721" y="541.498" style="fill:#CDA18B;" width="1.702" height="1.521"/>
			<rect x="195.389" y="513.97" style="fill:#CDA18B;" width="1.678" height="12.167"/>
			<polygon style="fill:#404041;" points="197.678,505.075 197.678,503.554 204.297,503.554 204.297,505.075 205.192,505.075 
				205.67,505.105 206.088,505.105 206.088,515.365 205.192,515.365 204.475,515.365 202.688,515.365 202.688,511.696 
				204.475,511.696 204.475,505.97 199.376,505.97 199.376,515.275 196.067,515.275 196.067,505.97 196.067,505.075 			"/>
		</g>
		<polygon style="fill:#FFFFFF;" points="199.436,543.361 199.436,542.934 198.581,542.934 198.581,542.422 197.554,542.422 
			197.554,544.557 198.237,544.557 198.237,543.745 198.965,543.745 198.965,544.557 199.349,544.557 199.436,544.557 
			200.373,544.557 200.373,543.361 		"/>
		<polygon style="fill:#FFFFFF;" points="202.978,543.361 202.978,542.934 202.125,542.934 202.125,542.422 201.1,542.422 
			201.1,544.557 201.783,544.557 201.783,543.745 202.51,543.745 202.51,544.557 202.895,544.557 202.978,544.557 203.92,544.557 
			203.92,543.361 		"/>
	</g>
	<g>
		<polygon style="fill:#231F20;" points="212.248,543.188 212.248,527.421 210.754,527.421 210.754,513.701 212.304,513.701 
			212.304,512.041 220.27,512.041 220.27,513.701 221.709,513.701 221.709,527.421 220.131,527.421 220.131,543.188 
			221.709,543.188 221.709,544.682 220.131,544.682 219.552,544.682 216.977,544.682 216.977,528.958 215.401,528.958 
			215.401,544.682 212.829,544.682 212.248,544.682 210.67,544.682 210.67,543.188 		"/>
		<rect x="214.901" y="510.644" style="fill:#EFBEB3;" width="2.99" height="3.113"/>
		<rect x="213.214" y="504.792" style="fill:#EFBEB3;" width="6.31" height="6.307"/>
		<rect x="217.891" y="504.682" style="fill:#603813;" width="1.661" height="5.228"/>
		<rect x="211.915" y="504.682" style="fill:#603813;" width="7.637" height="1.328"/>
		<rect x="212.829" y="503.272" style="fill:#603813;" width="5.478" height="1.659"/>
		<polygon style="fill:#FFFFFF;" points="216.352,521.616 214.901,513.588 217.891,513.588 		"/>
		<g>
			<rect x="220.131" y="527.421" style="fill:#EACBC6;" width="1.578" height="1.41"/>
			<rect x="221.293" y="527.421" style="fill:#FCB912;" width="0.5" height="0.498"/>
		</g>
		<rect x="210.65" y="527.421" style="fill:#EFBEB3;" width="1.576" height="1.41"/>
		<polygon style="fill:#BCC2C6;" points="216.091,520.104 216.368,521.648 216.792,519.431 217.155,513.577 215.686,513.577 		"/>
	</g>
</g>
<rect x="340.3" y="497.409" style="fill:#754C28;" width="2.668" height="8.336"/>
<rect x="403.451" y="501.377" style="fill:#ECEFF0;" width="11.814" height="3.937"/>
<polygon style="fill:#D15627;" points="414.917,493.438 414.917,489.173 412.294,489.173 412.294,483.922 408.353,483.922 
	408.353,500.003 411.31,500.003 412.294,500.003 414.264,500.003 414.917,500.003 417.544,500.003 417.544,493.438 "/>
<g>
	<rect x="72.651" y="520.177" style="fill:#ECEFF0;" width="20.788" height="5.944"/>
	<polygon style="fill:#EFC319;" points="73.261,508.193 73.261,501.755 77.881,501.755 77.881,493.829 84.811,493.829 
		84.811,518.101 79.614,518.101 77.881,518.101 74.416,518.101 73.261,518.101 68.642,518.101 68.642,508.193 	"/>
</g>
<polygon style="fill:#E7BF97;" points="126.015,591.733 126.013,560.164 138.007,560.164 193.832,536.936 222.664,536.936 
	279.624,560.164 291.614,560.164 291.522,592.013 "/>
<g>
	<rect x="166.062" y="584.145" style="fill:#754C28;" width="85.506" height="7.868"/>
	<rect x="171.671" y="576.749" style="fill:#754C28;" width="74.282" height="7.869"/>
	<rect x="177.556" y="568.974" style="fill:#754C28;" width="62.516" height="7.868"/>
	<rect x="149.597" y="570.984" style="fill:#754C28;" width="7.496" height="21.029"/>
	<rect x="260.873" y="570.984" style="fill:#754C28;" width="7.492" height="21.029"/>
	<rect x="183.174" y="561.201" style="fill:#754C28;" width="51.278" height="7.868"/>
	<rect x="190.295" y="555.007" style="fill:#754C28;" width="37.038" height="6.393"/>
</g>
</svg>
