<?xml version="1.0" encoding="iso-8859-1"?>
<!-- Generator: Adobe Illustrator 19.1.0, SVG Export Plug-In . SVG Version: 6.00 Build 0)  -->
<svg version="1.1" id="Layer_1" xmlns="http://www.w3.org/2000/svg" xmlns:xlink="http://www.w3.org/1999/xlink" x="0px" y="0px"
	 viewBox="0 0 597.171 592.013" style="enable-background:new 0 0 597.171 592.013;" xml:space="preserve">
<g>
	
		<rect x="80.311" y="390.104" transform="matrix(0.9468 0.3218 -0.3218 0.9468 131.4997 -5.5153)" style="fill:#ECF0F1;" width="4.242" height="9.775"/>
	<polygon style="fill:#ECF0F1;" points="140.892,408.357 142.081,404.857 145.608,406.056 147.155,401.504 151.206,402.881 
		149.659,407.433 148.872,409.749 148.47,410.933 144.915,421.391 137.337,418.816 80.53,399.507 84.085,389.048 	"/>
	<g>
		
			<rect x="106.113" y="408.382" transform="matrix(-0.9468 -0.3218 0.3218 -0.9468 90.381 836.9572)" style="fill:#ECF0F1;" width="16.507" height="5.252"/>
		
			<rect x="110.203" y="412.178" transform="matrix(-0.9468 -0.3218 0.3218 -0.9468 94.3689 847.2086)" style="fill:#ECF0F1;" width="14.011" height="7.253"/>
		
			<rect x="115.578" y="417.68" transform="matrix(-0.9468 -0.3218 0.3218 -0.9468 97.1176 856.6658)" style="fill:#ECF0F1;" width="7.573" height="5.252"/>
	</g>
	
		<rect x="78.638" y="390.202" transform="matrix(0.9468 0.3218 -0.3218 0.9468 131.3378 -4.9889)" style="fill:#ECF0F1;" width="4.242" height="9.127"/>
	
		<rect x="76.8" y="390.637" transform="matrix(0.9468 0.3218 -0.3218 0.9468 131.2141 -4.4015)" style="fill:#ECF0F1;" width="4.242" height="8.096"/>
	<g>
		
			<rect x="92.145" y="396.123" transform="matrix(-0.9468 -0.3218 0.3218 -0.9468 53.1293 802.5289)" style="fill:#70CCE4;" width="1.501" height="1.501"/>
		
			<rect x="94.968" y="397.082" transform="matrix(-0.9468 -0.3218 0.3218 -0.9468 58.3162 805.3054)" style="fill:#70CCE4;" width="1.501" height="1.501"/>
		
			<rect x="97.791" y="398.042" transform="matrix(-0.9468 -0.3218 0.3218 -0.9468 63.5031 808.0818)" style="fill:#70CCE4;" width="1.501" height="1.501"/>
		
			<rect x="100.614" y="399.001" transform="matrix(-0.9468 -0.3218 0.3218 -0.9468 68.69 810.8582)" style="fill:#70CCE4;" width="1.501" height="1.501"/>
		
			<rect x="103.437" y="399.961" transform="matrix(-0.9468 -0.3218 0.3218 -0.9468 73.8769 813.6346)" style="fill:#70CCE4;" width="1.501" height="1.501"/>
		
			<rect x="106.26" y="400.92" transform="matrix(-0.9468 -0.3218 0.3218 -0.9468 79.0638 816.4111)" style="fill:#70CCE4;" width="1.501" height="1.501"/>
		
			<rect x="109.083" y="401.88" transform="matrix(-0.9468 -0.3218 0.3218 -0.9468 84.2507 819.1875)" style="fill:#70CCE4;" width="1.501" height="1.501"/>
		
			<rect x="111.906" y="402.839" transform="matrix(-0.9468 -0.3218 0.3218 -0.9468 89.4376 821.9639)" style="fill:#70CCE4;" width="1.501" height="1.501"/>
		
			<rect x="114.729" y="403.799" transform="matrix(-0.9468 -0.3218 0.3218 -0.9468 94.6245 824.7403)" style="fill:#70CCE4;" width="1.501" height="1.501"/>
		
			<rect x="117.552" y="404.758" transform="matrix(-0.9468 -0.3218 0.3218 -0.9468 99.8113 827.5167)" style="fill:#70CCE4;" width="1.501" height="1.501"/>
		
			<rect x="120.374" y="405.718" transform="matrix(-0.9468 -0.3218 0.3218 -0.9468 104.9982 830.2932)" style="fill:#70CCE4;" width="1.501" height="1.501"/>
		
			<rect x="123.197" y="406.677" transform="matrix(-0.9468 -0.3218 0.3218 -0.9468 110.1851 833.0696)" style="fill:#70CCE4;" width="1.501" height="1.501"/>
		
			<rect x="126.02" y="407.637" transform="matrix(-0.9468 -0.3218 0.3218 -0.9468 115.372 835.846)" style="fill:#70CCE4;" width="1.501" height="1.501"/>
		
			<rect x="128.843" y="408.596" transform="matrix(-0.9468 -0.3218 0.3218 -0.9468 120.5589 838.6224)" style="fill:#70CCE4;" width="1.501" height="1.501"/>
		
			<rect x="131.666" y="409.556" transform="matrix(-0.9468 -0.3218 0.3218 -0.9468 125.7458 841.3989)" style="fill:#70CCE4;" width="1.501" height="1.501"/>
		
			<rect x="134.489" y="410.515" transform="matrix(-0.9468 -0.3218 0.3218 -0.9468 130.9327 844.1753)" style="fill:#70CCE4;" width="1.501" height="1.501"/>
	</g>
	
		<rect x="86.003" y="392.444" transform="matrix(-0.9468 -0.3218 0.3218 -0.9468 43.5034 799.3027)" style="fill:#E1E5E6;" width="3.627" height="7.224"/>
	
		<rect x="75.02" y="393.331" transform="matrix(0.9468 0.3218 -0.3218 0.9468 131.4701 -3.771)" style="fill:#ECF0F1;" width="4.242" height="4.888"/>
	
		<rect x="78.535" y="391.958" transform="matrix(-0.9468 -0.3218 0.3218 -0.9468 27.57 790.5269)" style="fill:#70CCE4;" width="1.178" height="2.053"/>
</g>
<g>
	<rect x="532.326" y="363.629" style="fill:#FFFFFF;" width="19.451" height="19.449"/>
	<rect x="546.374" y="357.145" style="fill:#FFFFFF;" width="19.447" height="19.45"/>
</g>
<rect x="360.108" y="289.925" style="fill:#EFC319;" width="28.712" height="28.712"/>
<g>
	<rect x="195.09" y="335.296" style="fill:#FFFFFF;" width="19.453" height="19.45"/>
	<rect x="209.142" y="328.814" style="fill:#FFFFFF;" width="19.445" height="19.448"/>
</g>
<rect x="392.452" y="525.68" style="fill:#ECEFF0;" width="11.814" height="3.937"/>
<polygon style="fill:#D15627;" points="403.918,517.74 403.918,513.475 401.295,513.475 401.295,508.224 397.354,508.224 
	397.354,524.305 400.31,524.305 401.295,524.305 403.265,524.305 403.918,524.305 406.545,524.305 406.545,517.74 "/>
<g>
	<rect x="469.745" y="331.28" style="fill:#ECF0F1;" width="34.373" height="238.488"/>
	<rect x="448.748" y="304.281" style="fill:#ECF0F1;" width="75.71" height="37.498"/>
	<rect x="457.982" y="284.783" style="fill:#ECF0F1;" width="57.475" height="31.498"/>
</g>
<rect x="456.031" y="314.981" style="fill:#70CCE4;" width="8" height="14.999"/>
<rect x="469.142" y="314.981" style="fill:#70CCE4;" width="8" height="14.999"/>
<rect x="495.363" y="314.981" style="fill:#70CCE4;" width="8" height="14.999"/>
<rect x="508.474" y="314.981" style="fill:#70CCE4;" width="8" height="14.999"/>
<rect x="482.253" y="314.981" style="fill:#70CCE4;" width="8" height="14.999"/>
<rect x="421.041" y="539.548" style="fill:#ECF0F1;" width="8.48" height="19.542"/>
<polygon style="fill:#ECF0F1;" points="306.031,537.007 306.031,529.616 298.586,529.616 298.586,520.007 290.031,520.007 
	290.031,529.616 290.031,534.507 290.031,537.007 290.031,559.09 306.031,559.09 425.977,559.09 425.977,537.007 "/>
<g>
	<rect x="338.031" y="553.84" style="fill:#ECF0F1;" width="33" height="10.5"/>
	<rect x="332.062" y="559.09" style="fill:#ECF0F1;" width="28.01" height="14.5"/>
	<rect x="331.521" y="568.223" style="fill:#ECF0F1;" width="15.14" height="10.5"/>
</g>
<rect x="420.031" y="561.09" style="fill:#ECF0F1;" width="6.25" height="6.25"/>
<rect x="424.354" y="540.843" style="fill:#ECF0F1;" width="8.48" height="18.246"/>
<rect x="301.544" y="561.09" style="fill:#ECF0F1;" width="6.25" height="6.25"/>
<rect x="427.885" y="542.905" style="fill:#ECF0F1;" width="8.48" height="16.185"/>
<rect x="432.708" y="544.544" style="fill:#70CCE4;" width="2.354" height="4.104"/>
<g>
	<rect x="402.766" y="544.648" style="fill:#70CCE4;" width="3" height="3"/>
	<rect x="396.805" y="544.648" style="fill:#70CCE4;" width="3" height="3"/>
	<rect x="390.845" y="544.648" style="fill:#70CCE4;" width="3" height="3"/>
	<rect x="384.884" y="544.648" style="fill:#70CCE4;" width="3" height="3"/>
	<rect x="378.924" y="544.648" style="fill:#70CCE4;" width="3" height="3"/>
	<rect x="372.963" y="544.648" style="fill:#70CCE4;" width="3" height="3"/>
	<rect x="367.003" y="544.648" style="fill:#70CCE4;" width="3" height="3"/>
	<rect x="361.042" y="544.648" style="fill:#70CCE4;" width="3" height="3"/>
	<rect x="355.082" y="544.648" style="fill:#70CCE4;" width="3" height="3"/>
	<rect x="349.122" y="544.648" style="fill:#70CCE4;" width="3" height="3"/>
	<rect x="343.161" y="544.648" style="fill:#70CCE4;" width="3" height="3"/>
	<rect x="337.201" y="544.648" style="fill:#70CCE4;" width="3" height="3"/>
	<rect x="331.24" y="544.648" style="fill:#70CCE4;" width="3" height="3"/>
	<rect x="325.28" y="544.648" style="fill:#70CCE4;" width="3" height="3"/>
	<rect x="319.319" y="544.648" style="fill:#70CCE4;" width="3" height="3"/>
	<rect x="313.359" y="544.648" style="fill:#70CCE4;" width="3" height="3"/>
</g>
<rect x="410.781" y="540.648" style="fill:#E1E5E6;" width="7.25" height="14.441"/>
<rect x="430.552" y="549.319" style="fill:#ECF0F1;" width="8.48" height="9.771"/>
</svg>
