<?xml version="1.0" encoding="iso-8859-1"?>
<!-- Generator: Adobe Illustrator 19.1.0, SVG Export Plug-In . SVG Version: 6.00 Build 0)  -->
<svg version="1.1" id="Layer_1" xmlns="http://www.w3.org/2000/svg" xmlns:xlink="http://www.w3.org/1999/xlink" x="0px" y="0px"
	 viewBox="0 0 45.667 29.333" style="enable-background:new 0 0 45.667 29.333;" xml:space="preserve">
<polygon style="fill:#70CCE4;" points="38.031,7.469 34.521,7.469 34.521,4.195 25.633,4.195 25.633,7.469 21.188,7.469 
	21.188,4.194 12.295,4.194 12.295,7.469 8.084,7.469 8.084,15.425 12.063,15.425 12.063,19.166 12.295,19.166 16.508,19.166 
	16.508,22.91 20.951,22.91 20.951,27.121 25.164,27.121 25.164,22.91 29.607,22.91 29.607,19.167 34.521,19.167 34.521,15.425 
	38.031,15.425 "/>
<g>
	<path style="fill:#35495E;" d="M8.399,15.432H4.626L3.853,17.53h1.101c0.137,0,0.234,0.026,0.294,0.079s0.089,0.122,0.089,0.208
		c0,0.082-0.029,0.15-0.089,0.205s-0.157,0.082-0.294,0.082H2.807c-0.137,0-0.234-0.027-0.294-0.082s-0.089-0.123-0.089-0.205
		c0-0.086,0.029-0.156,0.089-0.208s0.157-0.079,0.294-0.079h0.444l2.536-6.85H4.092c-0.137,0-0.234-0.026-0.294-0.079
		S3.71,10.48,3.71,10.394s0.029-0.156,0.089-0.208s0.157-0.079,0.294-0.079h2.892l2.803,7.424h0.444
		c0.137,0,0.234,0.026,0.294,0.079s0.089,0.122,0.089,0.208c0,0.082-0.029,0.15-0.089,0.205s-0.157,0.082-0.294,0.082h-2.14
		c-0.142,0-0.241-0.027-0.301-0.082s-0.089-0.123-0.089-0.205c0-0.086,0.029-0.156,0.089-0.208S7.95,17.53,8.091,17.53h1.094
		L8.399,15.432z M8.18,14.857l-1.586-4.177H6.382l-1.538,4.177H8.18z"/>
	<path style="fill:#35495E;" d="M16.965,10.681v-0.191c0-0.137,0.026-0.235,0.079-0.294c0.052-0.059,0.121-0.089,0.208-0.089
		s0.156,0.03,0.208,0.089c0.053,0.059,0.079,0.157,0.079,0.294v1.463c0,0.137-0.026,0.235-0.079,0.294
		c-0.052,0.059-0.121,0.089-0.208,0.089c-0.082,0-0.149-0.027-0.202-0.082c-0.052-0.055-0.08-0.144-0.085-0.267
		c-0.022-0.383-0.22-0.727-0.591-1.032c-0.372-0.305-0.858-0.458-1.46-0.458c-0.634,0-1.137,0.163-1.511,0.489
		s-0.561,0.71-0.561,1.152c0,0.228,0.053,0.435,0.157,0.622s0.244,0.338,0.417,0.455s0.369,0.209,0.588,0.28
		s0.561,0.145,1.025,0.222c0.779,0.127,1.317,0.257,1.613,0.39c0.396,0.178,0.696,0.424,0.898,0.738
		c0.203,0.314,0.305,0.686,0.305,1.114c0,0.656-0.262,1.216-0.786,1.678s-1.23,0.694-2.119,0.694c-0.998,0-1.796-0.312-2.393-0.937
		v0.328c0,0.137-0.026,0.235-0.079,0.294c-0.052,0.059-0.121,0.089-0.208,0.089c-0.082,0-0.15-0.03-0.205-0.089
		s-0.082-0.157-0.082-0.294v-1.586c0-0.141,0.026-0.242,0.079-0.301c0.052-0.059,0.121-0.089,0.208-0.089
		c0.082,0,0.149,0.027,0.202,0.082c0.052,0.055,0.08,0.144,0.085,0.267c0.022,0.419,0.247,0.801,0.673,1.145
		c0.427,0.344,1,0.516,1.72,0.516s1.288-0.18,1.706-0.54c0.416-0.36,0.625-0.786,0.625-1.278c0-0.301-0.08-0.568-0.239-0.803
		s-0.396-0.42-0.711-0.557c-0.219-0.096-0.675-0.203-1.367-0.321c-0.952-0.16-1.639-0.403-2.058-0.731s-0.629-0.795-0.629-1.401
		c0-0.602,0.24-1.119,0.721-1.552c0.481-0.433,1.116-0.649,1.904-0.649C15.695,9.922,16.385,10.175,16.965,10.681z"/>
	<path style="fill:#35495E;" d="M24.771,15.322l0.342-1.189h0.718c0.292,0,0.492,0.034,0.602,0.103
		c0.219,0.141,0.328,0.344,0.328,0.608c0,0.191-0.058,0.352-0.175,0.482c-0.115,0.13-0.256,0.199-0.42,0.208
		c-0.114,0.488-0.258,0.877-0.431,1.169c0.369,0,0.606,0.034,0.711,0.103c0.224,0.137,0.335,0.337,0.335,0.602
		c0,0.205-0.072,0.373-0.215,0.502c-0.145,0.13-0.385,0.195-0.722,0.195H25.01l-0.164-0.219c-0.205,0.146-0.401,0.246-0.588,0.301
		c-0.278,0.082-0.615,0.123-1.012,0.123c-0.825,0-1.464-0.211-1.917-0.632c-0.454-0.421-0.681-0.956-0.681-1.603
		c0-0.442,0.112-0.865,0.339-1.268c0.225-0.403,0.57-0.742,1.035-1.015c-0.2-0.333-0.332-0.591-0.393-0.776
		c-0.062-0.185-0.093-0.382-0.093-0.591c0-0.565,0.214-1.061,0.643-1.487s0.937-0.639,1.524-0.639c0.155,0,0.314,0.02,0.479,0.058
		s0.333,0.099,0.506,0.181c0.164-0.073,0.287-0.109,0.369-0.109c0.191,0,0.355,0.069,0.492,0.208s0.205,0.304,0.205,0.496
		c0,0.16-0.037,0.291-0.113,0.393c-0.074,0.103-0.227,0.215-0.454,0.338L24.6,12.178c-0.224-0.201-0.403-0.335-0.54-0.403
		c-0.104-0.05-0.226-0.075-0.362-0.075c-0.214,0-0.395,0.072-0.54,0.215s-0.219,0.309-0.219,0.496c0,0.16,0.135,0.435,0.403,0.827
		L24.771,15.322z M22.83,14.967c-0.52,0.242-0.779,0.608-0.779,1.101c0,0.26,0.089,0.465,0.267,0.615s0.487,0.226,0.93,0.226
		c0.282,0,0.542-0.068,0.779-0.205L22.83,14.967z"/>
	<path style="fill:#35495E;" d="M29.843,14.242v3.288h4.416v-1.695c0-0.137,0.026-0.235,0.079-0.294
		c0.052-0.059,0.121-0.089,0.208-0.089s0.156,0.03,0.208,0.089c0.053,0.059,0.079,0.157,0.079,0.294v2.27h-6.337
		c-0.137,0-0.234-0.027-0.294-0.082s-0.089-0.123-0.089-0.205c0-0.086,0.029-0.156,0.089-0.208s0.157-0.079,0.294-0.079h0.772v-6.85
		h-0.772c-0.137,0-0.234-0.026-0.294-0.079s-0.089-0.122-0.089-0.208s0.029-0.156,0.089-0.208s0.157-0.079,0.294-0.079h6.036v1.976
		c0,0.137-0.026,0.235-0.079,0.294c-0.052,0.059-0.121,0.089-0.208,0.089s-0.156-0.03-0.208-0.089
		c-0.053-0.059-0.079-0.157-0.079-0.294v-1.401h-4.115v2.987h2.058v-0.649c0-0.137,0.027-0.235,0.082-0.294
		c0.055-0.059,0.125-0.089,0.212-0.089c0.082,0,0.15,0.03,0.205,0.089s0.082,0.157,0.082,0.294v1.873
		c0,0.137-0.027,0.235-0.082,0.294s-0.123,0.089-0.205,0.089c-0.087,0-0.157-0.03-0.212-0.089c-0.055-0.059-0.082-0.157-0.082-0.294
		v-0.649H29.843z"/>
	<path style="fill:#35495E;" d="M40.494,15.705h-0.656l-2.208-5.024H37.52v6.85h1.06c0.137,0,0.234,0.026,0.294,0.079
		s0.089,0.122,0.089,0.208c0,0.082-0.029,0.15-0.089,0.205s-0.157,0.082-0.294,0.082h-2.119c-0.137,0-0.234-0.027-0.294-0.082
		s-0.089-0.123-0.089-0.205c0-0.086,0.029-0.156,0.089-0.208s0.157-0.079,0.294-0.079h0.485v-6.85h-0.362
		c-0.137,0-0.234-0.026-0.294-0.079s-0.089-0.122-0.089-0.208s0.029-0.156,0.089-0.208s0.157-0.079,0.294-0.079h1.408l2.174,4.949
		l2.14-4.949h1.408c0.142,0,0.241,0.026,0.301,0.079s0.089,0.122,0.089,0.208s-0.029,0.156-0.089,0.208s-0.159,0.079-0.301,0.079
		h-0.355v6.85h0.479c0.142,0,0.241,0.026,0.301,0.079s0.089,0.122,0.089,0.208c0,0.082-0.029,0.15-0.089,0.205
		s-0.159,0.082-0.301,0.082h-2.112c-0.137,0-0.236-0.027-0.297-0.082c-0.062-0.055-0.093-0.123-0.093-0.205
		c0-0.086,0.029-0.156,0.089-0.208s0.159-0.079,0.301-0.079h1.06v-6.85h-0.123L40.494,15.705z"/>
</g>
</svg>
