<?xml version="1.0" encoding="iso-8859-1"?>
<!-- Generator: Adobe Illustrator 19.1.0, SVG Export Plug-In . SVG Version: 6.00 Build 0)  -->
<svg version="1.1" id="Layer_1" xmlns="http://www.w3.org/2000/svg" xmlns:xlink="http://www.w3.org/1999/xlink" x="0px" y="0px"
	 viewBox="0 0 569.271 565.163" style="enable-background:new 0 0 569.271 565.163;" xml:space="preserve">
<rect x="458.355" y="476.805" style="fill:#ECEFF0;" width="110.916" height="20.503"/>
<rect x="453.096" y="399.347" style="fill:#ECEFF0;" width="94.485" height="77.77"/>
<rect x="446.343" y="395.445" style="fill:#D15627;" width="101.514" height="5.073"/>
<rect x="448.727" y="392.485" style="fill:#D15627;" width="96.735" height="7.609"/>
<rect x="451.913" y="388.683" style="fill:#D15627;" width="90.376" height="7.608"/>
<rect x="453.863" y="385.3" style="fill:#D15627;" width="86.471" height="7.609"/>
<rect x="443.526" y="397.981" style="fill:#D15627;" width="107.154" height="3.805"/>
<rect x="148.076" y="343.883" style="fill:#FFFFFF;" width="307.291" height="154.693"/>
<rect x="232.896" y="511.256" style="fill:#FFFFFF;" width="133.138" height="32.968"/>
<rect x="278.544" y="512.947" style="fill:#FFFFFF;" width="44.377" height="52.366"/>
<rect x="284.035" y="388.684" style="fill:#ECEFF0;" width="35.504" height="63.4"/>
<polygon style="fill:#FFFFFF;" points="220.636,498.154 282.768,445.833 319.115,445.833 378.292,498.154 "/>
<rect x="250.647" y="518.389" style="fill:#7A973C;" width="97.635" height="19.971"/>
<rect x="258.256" y="520.132" style="fill:#FFFFFF;" width="82.417" height="6.34"/>
<rect x="263.326" y="515.695" style="fill:#E64C3B;" width="72.275" height="7.608"/>
<polygon style="fill:#597B37;" points="377.443,532.811 377.443,527.104 355.885,527.104 355.885,537.883 350.817,537.883 
	350.817,543.59 342.574,543.59 342.574,550.562 350.817,550.562 355.253,550.562 355.885,550.562 363.496,550.562 366.665,550.562 
	377.443,550.562 384.418,550.562 384.418,532.811 "/>
<polygon style="fill:#597B37;" points="246.707,543.59 246.707,532.811 239.729,532.811 239.729,527.105 218.176,527.105 
	218.176,537.884 213.106,537.884 213.106,550.563 218.176,550.563 225.785,550.563 228.954,550.563 239.729,550.563 
	241.635,550.563 246.707,550.563 257.483,550.563 257.483,543.59 "/>
<rect x="226.554" y="530.74" style="fill:#EB008B;" width="2.113" height="2.113"/>
<rect x="238.601" y="540.393" style="fill:#EB008B;" width="2.113" height="2.113"/>
<rect x="213.102" y="537.461" style="fill:#EB008B;" width="2.115" height="2.112"/>
<rect x="217.653" y="543.777" style="fill:#EB008B;" width="3.434" height="3.433"/>
<rect x="350.605" y="537.249" style="fill:#EB008B;" width="2.113" height="2.113"/>
<rect x="365.611" y="531.121" style="fill:#EB008B;" width="2.113" height="2.113"/>
<rect x="378.303" y="539.164" style="fill:#EB008B;" width="2.508" height="2.51"/>
<rect x="358.312" y="541.573" style="fill:#EB008B;" width="3.607" height="3.607"/>
<rect x="283.19" y="494.773" style="fill:#FFFFFF;" width="36.772" height="20.243"/>
<rect x="285.388" y="458.635" style="fill:#EFC319;" width="33.029" height="39.942"/>
<rect x="148.076" y="366.706" style="fill:#ECEFF0;" width="307.291" height="3.802"/>
<rect x="286.082" y="343.46" style="fill:#ECEFF0;" width="31.276" height="23.879"/>
<rect x="219.388" y="355.716" style="fill:#58595B;" width="7.611" height="7.609"/>
<rect x="382.922" y="355.718" style="fill:#58595B;" width="7.611" height="7.607"/>
<rect x="289.11" y="394.601" style="fill:#EFC319;" width="25.36" height="48.183"/>
<rect x="162.881" y="377.763" style="fill:#ECEFF0;" width="278.385" height="2.363"/>
<rect x="175.412" y="399.252" style="fill:#754C28;" width="30.929" height="33.243"/>
<rect x="182.874" y="399.252" style="fill:#EFC319;" width="16.234" height="33.243"/>
<rect x="221.413" y="399.252" style="fill:#754C28;" width="30.925" height="33.243"/>
<rect x="228.756" y="399.252" style="fill:#EFC319;" width="16.236" height="33.243"/>
<rect x="349.971" y="399.252" style="fill:#754C28;" width="30.927" height="33.243"/>
<rect x="357.537" y="399.252" style="fill:#EFC319;" width="16.236" height="33.243"/>
<rect x="395.973" y="399.252" style="fill:#754C28;" width="30.924" height="33.243"/>
<rect x="403.534" y="399.252" style="fill:#EFC319;" width="16.234" height="33.243"/>
<rect x="348.7" y="431.586" style="fill:#7A973C;" width="33.815" height="5.918"/>
<rect x="218.943" y="429.473" style="fill:#7A973C;" width="36.929" height="5.916"/>
<line style="fill:none;stroke:#ECEFF0;stroke-miterlimit:10;" x1="245.992" y1="477.867" x2="283.19" y2="444.053"/>
<line style="fill:none;stroke:#ECEFF0;stroke-miterlimit:10;" x1="318.694" y1="444.9" x2="365.185" y2="485.475"/>
<rect x="468.99" y="436.442" style="fill:#754C28;" width="13.496" height="40.576"/>
<rect x="464.074" y="413.478" style="fill:#58595B;" width="7.609" height="7.608"/>
<rect x="484.017" y="413.478" style="fill:#58595B;" width="7.609" height="7.608"/>
<rect x="483.89" y="438.766" style="fill:#DADDDD;" width="16.907" height="38.039"/>
<rect x="498.396" y="413.478" style="fill:#58595B;" width="7.605" height="7.608"/>
<rect x="487.609" y="442.431" style="fill:#EFC319;" width="10.04" height="20.563"/>
<rect x="501.959" y="438.766" style="fill:#DADDDD;" width="16.907" height="38.039"/>
<rect x="505.68" y="442.431" style="fill:#EFC319;" width="10.04" height="20.563"/>
<rect x="266.282" y="487.588" style="fill:#ECEFF0;" width="18.811" height="10.988"/>
<rect x="318.694" y="487.588" style="fill:#ECEFF0;" width="19.442" height="10.986"/>
<rect x="73.594" y="399.478" style="fill:#754C28;" width="22.582" height="36.135"/>
<rect x="83.935" y="419.449" style="fill:#754C28;" width="17.51" height="36.134"/>
<rect x="92.621" y="437.849" style="fill:#754C28;" width="14.366" height="36.136"/>
<rect x="90.956" y="456.248" style="fill:#754C28;" width="14.127" height="36.134"/>
<rect x="73.356" y="464.779" style="fill:#597B37;" width="83.1" height="32.331"/>
<g>
	<rect x="63.458" y="374.13" style="fill:#597B37;" width="34.237" height="34.234"/>
	<rect x="44.444" y="404.56" style="fill:#597B37;" width="26.623" height="26.627"/>
	<rect x="53.952" y="379.836" style="fill:#597B37;" width="66.568" height="53.253"/>
	<rect x="42.541" y="358.914" style="fill:#597B37;" width="55.154" height="34.235"/>
	<rect x="38.736" y="383.639" style="fill:#597B37;" width="30.43" height="30.432"/>
	<rect x="88.184" y="357.012" style="fill:#597B37;" width="41.844" height="64.665"/>
</g>
<rect x="401.058" y="9.837" style="fill:#FFFFFF;" width="32.246" height="32.248"/>
<rect x="313.211" y="24.848" style="fill:#EFC319;" width="2.223" height="2.225"/>
<rect x="222.528" y="63.235" style="fill:#FFFFFF;" width="2.223" height="2.225"/>
<rect x="125.697" y="65.626" style="fill:#FFFFFF;" width="2.225" height="2.225"/>
<rect x="473.434" y="68.242" style="fill:#EFC319;" width="2.227" height="2.225"/>
<rect x="249.787" y="89.939" style="fill:#EFC319;" width="2.228" height="2.225"/>
<rect x="273.155" y="118.313" style="fill:#EFC319;" width="2.227" height="2.225"/>
<rect x="106.565" y="148.17" style="fill:#EFC319;" width="2.227" height="2.225"/>
<g>
	<g>
		<rect x="289.625" y="475.675" style="fill:#FFFFFF;" width="7.856" height="26.196"/>
		<rect x="291.137" y="473.733" style="fill:#404041;" width="5.87" height="2.095"/>
		<rect x="292.058" y="468.344" style="fill:#CDA18B;" width="5.789" height="7.605"/>
		<g>
			<rect x="297.329" y="485.487" style="fill:#CDA18B;" width="1.594" height="1.707"/>
			<rect x="298.505" y="485.768" style="fill:#CDA18B;" width="0.503" height="0.503"/>
		</g>
		<rect x="297.437" y="476.164" style="fill:#CDA18B;" width="1.571" height="9.561"/>
		<rect x="294.449" y="501.871" style="fill:#CDA18B;" width="1.594" height="1.425"/>
		<rect x="291.177" y="501.871" style="fill:#CDA18B;" width="1.592" height="1.425"/>
		<rect x="288.989" y="476.065" style="fill:#CDA18B;" width="1.575" height="11.407"/>
		<polygon style="fill:#404041;" points="291.137,467.729 291.137,466.304 297.342,466.304 297.342,467.729 298.179,467.729 
			298.628,467.756 299.021,467.756 299.021,477.373 298.179,477.373 297.51,477.373 295.831,477.373 295.831,473.935 
			297.51,473.935 297.51,468.568 292.731,468.568 292.731,477.289 289.625,477.289 289.625,468.568 289.625,467.729 		"/>
	</g>
	<polygon style="fill:#FFFFFF;" points="292.781,503.618 292.781,503.218 291.979,503.218 291.979,502.736 291.021,502.736 
		291.021,504.739 291.661,504.739 291.661,503.978 292.342,503.978 292.342,504.739 292.702,504.739 292.781,504.739 
		293.662,504.739 293.662,503.618 	"/>
	<polygon style="fill:#FFFFFF;" points="296.105,503.618 296.105,503.218 295.303,503.218 295.303,502.736 294.343,502.736 
		294.343,504.739 294.983,504.739 294.983,503.978 295.665,503.978 295.665,504.739 296.026,504.739 296.105,504.739 
		296.986,504.739 296.986,503.618 	"/>
</g>
<line style="fill:none;stroke:#ECEFF0;stroke-miterlimit:10;" x1="236.729" y1="399.248" x2="236.729" y2="432.381"/>
<g>
	<polygon style="fill:#231F20;" points="304.793,503.456 304.793,488.675 303.392,488.675 303.392,475.813 304.847,475.813 
		304.847,474.259 312.315,474.259 312.315,475.813 313.663,475.813 313.663,488.675 312.184,488.675 312.184,503.456 
		313.663,503.456 313.663,504.857 312.184,504.857 311.639,504.857 309.227,504.857 309.227,490.117 307.75,490.117 307.75,504.857 
		305.339,504.857 304.793,504.857 303.313,504.857 303.313,503.456 	"/>
	<rect x="307.282" y="472.949" style="fill:#EFBEB3;" width="2.799" height="2.916"/>
	<rect x="305.701" y="467.464" style="fill:#EFBEB3;" width="5.913" height="5.912"/>
	<rect x="310.081" y="467.36" style="fill:#603813;" width="1.558" height="4.902"/>
	<rect x="304.483" y="467.36" style="fill:#603813;" width="7.156" height="1.246"/>
	<rect x="305.339" y="466.038" style="fill:#603813;" width="5.132" height="1.557"/>
	<polygon style="fill:#FFFFFF;" points="308.639,483.234 307.282,475.709 310.081,475.709 	"/>
	<g>
		<rect x="312.184" y="488.675" style="fill:#EACBC6;" width="1.479" height="1.324"/>
		<rect x="313.275" y="488.675" style="fill:#FCB912;" width="0.465" height="0.467"/>
	</g>
	<rect x="303.295" y="488.675" style="fill:#EFBEB3;" width="1.48" height="1.324"/>
	<polygon style="fill:#BCC2C6;" points="308.396,481.816 308.656,483.263 309.05,481.186 309.395,475.699 308.016,475.699 	"/>
</g>
<line style="fill:none;stroke:#ECEFF0;stroke-miterlimit:10;" x1="301.824" y1="403.698" x2="301.824" y2="442.736"/>
<rect x="282.768" y="442.033" style="fill:#E64C3B;" width="36.348" height="3.8"/>
<line style="fill:none;stroke:#ECEFF0;stroke-miterlimit:10;" x1="287.636" y1="404.255" x2="315.454" y2="404.255"/>
<line style="fill:none;stroke:#ECEFF0;stroke-miterlimit:10;" x1="190.992" y1="399.248" x2="190.992" y2="432.381"/>
<rect x="174.143" y="429.473" style="fill:#7A973C;" width="33.813" height="5.916"/>
<g>
	<rect x="232.378" y="451.671" style="fill:#754C28;" width="12.61" height="35.608"/>
	
		<rect x="232.301" y="436.629" transform="matrix(0.987 0.1608 -0.1608 0.987 74.7582 -32.8062)" style="fill:#754C28;" width="15.579" height="17.805"/>
	<g>
		
			<rect x="232.537" y="433.323" transform="matrix(-0.8109 -0.5852 0.5852 -0.8109 172.9741 931.4454)" style="fill:#597B37;" width="8.902" height="8.902"/>
		
			<rect x="225.92" y="428.549" transform="matrix(-0.8109 -0.5852 0.5852 -0.8109 163.7982 918.9284)" style="fill:#597B37;" width="8.902" height="8.9"/>
		
			<rect x="218.737" y="425.192" transform="matrix(-0.8109 -0.5852 0.5852 -0.8109 152.7482 908.647)" style="fill:#597B37;" width="8.902" height="8.903"/>
		
			<rect x="213.131" y="424.978" transform="matrix(-0.9233 -0.3842 0.3842 -0.9233 253.5017 909.4922)" style="fill:#597B37;" width="8.901" height="8.902"/>
		
			<rect x="206.124" y="424.995" transform="matrix(-0.9753 -0.2207 0.2207 -0.9753 321.1714 894.78)" style="fill:#597B37;" width="8.901" height="8.903"/>
		<polygon style="fill:#597B37;" points="200.043,431.981 205.568,435.969 209.56,430.439 204.028,426.453 		"/>
		
			<rect x="199.966" y="432.851" transform="matrix(-0.8106 -0.5857 0.5857 -0.8106 110.9355 905.4836)" style="fill:#597B37;" width="3.894" height="3.899"/>
	</g>
	<g>
		
			<rect x="244.24" y="431.609" transform="matrix(0.7753 -0.6316 0.6316 0.7753 -219.5233 255.034)" style="fill:#597B37;" width="8.903" height="8.901"/>
		
			<rect x="250.567" y="426.458" transform="matrix(0.7755 -0.6313 0.6313 0.7755 -214.789 257.7091)" style="fill:#597B37;" width="8.903" height="8.902"/>
		
			<rect x="257.545" y="422.688" transform="matrix(0.7754 -0.6315 0.6315 0.7754 -210.8847 261.3865)" style="fill:#597B37;" width="8.902" height="8.904"/>
		<polygon style="fill:#597B37;" points="273.532,428.658 265.524,432.549 261.63,424.541 269.636,420.652 		"/>
		
			<rect x="270.127" y="421.76" transform="matrix(0.9609 -0.277 0.277 0.9609 -107.3043 92.7219)" style="fill:#597B37;" width="8.901" height="8.901"/>
		
			<rect x="277.036" y="424.227" transform="matrix(0.7756 -0.6312 0.6312 0.7756 -207.007 273.0006)" style="fill:#597B37;" width="6.818" height="6.817"/>
		
			<rect x="281.588" y="429.102" transform="matrix(0.7754 -0.6315 0.6315 0.7754 -208.5116 275.8521)" style="fill:#597B37;" width="3.896" height="3.898"/>
	</g>
	<g>
		
			<rect x="233.96" y="430.999" transform="matrix(-0.4912 -0.8711 0.8711 -0.4912 -23.8031 856.996)" style="fill:#597B37;" width="8.901" height="8.902"/>
		
			<rect x="229.951" y="423.893" transform="matrix(-0.4914 -0.871 0.871 -0.4914 -23.4875 842.9721)" style="fill:#597B37;" width="8.901" height="8.902"/>
		
			<rect x="224.835" y="417.834" transform="matrix(-0.4907 -0.8713 0.8713 -0.4907 -26.1518 829.2867)" style="fill:#597B37;" width="8.901" height="8.904"/>
		<polygon style="fill:#597B37;" points="217.993,419.485 224.025,426.032 230.571,420.002 224.545,413.454 		"/>
		<polygon style="fill:#597B37;" points="211.672,417.644 218.731,423.066 224.154,416.003 217.089,410.584 		"/>
		<polygon style="fill:#597B37;" points="207.286,414.712 210.638,420.651 216.572,417.301 213.227,411.363 		"/>
		
			<rect x="205.858" y="416.108" transform="matrix(-0.491 -0.8712 0.8712 -0.491 -54.3802 804.3395)" style="fill:#597B37;" width="3.894" height="3.9"/>
	</g>
	<g>
		
			<rect x="242.83" y="434.265" transform="matrix(0.9548 -0.2973 0.2973 0.9548 -119.2663 93.3719)" style="fill:#597B37;" width="8.903" height="8.902"/>
		
			<rect x="250.622" y="431.838" transform="matrix(0.9547 -0.2975 0.2975 0.9547 -118.2485 95.6401)" style="fill:#597B37;" width="8.901" height="8.902"/>
		
			<rect x="258.499" y="430.938" transform="matrix(0.9548 -0.2973 0.2973 0.9548 -117.5598 97.8708)" style="fill:#597B37;" width="8.903" height="8.902"/>
		
			<rect x="263.884" y="432.515" transform="matrix(0.9975 -0.071 0.071 0.9975 -30.3665 20.1683)" style="fill:#597B37;" width="8.903" height="8.902"/>
		
			<rect x="270.521" y="434.758" transform="matrix(0.9949 0.1005 -0.1005 0.9949 45.512 -25.401)" style="fill:#597B37;" width="8.905" height="8.903"/>
		
			<rect x="276.479" y="439.307" transform="matrix(0.9548 -0.2972 0.2972 0.9548 -118.9198 103.1766)" style="fill:#597B37;" width="6.818" height="6.817"/>
		<polygon style="fill:#597B37;" points="283.923,448.317 280.206,449.478 279.047,445.754 282.77,444.599 		"/>
	</g>
	
		<rect x="239.586" y="426.271" transform="matrix(0.987 0.161 -0.161 0.987 72.6646 -33.5954)" style="fill:#597B37;" width="8.158" height="10.756"/>
	
		<rect x="242.234" y="420.061" transform="matrix(0.987 0.1608 -0.1608 0.987 71.4604 -33.8495)" style="fill:#597B37;" width="5.194" height="8.902"/>
	
		<rect x="237.151" y="436.586" transform="matrix(-0.987 -0.1609 0.1609 -0.987 408.2306 916.9768)" style="fill:#597B37;" width="8.164" height="10.756"/>
	
		<rect x="237.058" y="444.619" transform="matrix(-0.987 -0.1608 0.1608 -0.987 403.5737 935.9843)" style="fill:#597B37;" width="5.19" height="14.093"/>
	
		<rect x="236.314" y="457.994" transform="matrix(-0.987 -0.1607 0.1607 -0.987 398.649 956.0787)" style="fill:#597B37;" width="3.337" height="7.852"/>
</g>
<rect x="189.994" y="428.569" style="fill:#EB008B;" width="2.115" height="2.112"/>
<rect x="179.098" y="427.018" style="fill:#EB008B;" width="3.432" height="3.433"/>
<line style="fill:none;stroke:#ECEFF0;stroke-miterlimit:10;" x1="411.652" y1="399.433" x2="411.652" y2="432.567"/>
<rect x="393.506" y="431.585" style="fill:#7A973C;" width="36.927" height="5.919"/>
<rect x="426.282" y="433.298" style="fill:#EB008B;" width="2.113" height="2.112"/>
<rect x="420.281" y="430.079" style="fill:#EB008B;" width="3.435" height="3.431"/>
<rect x="413.15" y="432.129" style="fill:#EB008B;" width="2.115" height="2.112"/>
<line style="fill:none;stroke:#ECEFF0;stroke-miterlimit:10;" x1="365.655" y1="399.433" x2="365.655" y2="432.567"/>
<g>
	<rect x="357.578" y="450.247" style="fill:#754C28;" width="12.61" height="35.608"/>
	
		<rect x="354.693" y="435.206" transform="matrix(-0.987 0.1609 -0.1609 -0.987 791.6905 824.1102)" style="fill:#754C28;" width="15.575" height="17.803"/>
	<g>
		
			<rect x="361.129" y="431.898" transform="matrix(0.8109 -0.5852 0.5852 0.8109 -186.2248 296.4893)" style="fill:#597B37;" width="8.902" height="8.903"/>
		
			<rect x="367.745" y="427.124" transform="matrix(0.8109 -0.5851 0.5851 0.8109 -182.1611 299.3835)" style="fill:#597B37;" width="8.904" height="8.901"/>
		
			<rect x="374.93" y="423.768" transform="matrix(0.8108 -0.5853 0.5853 0.8108 -178.8652 303.067)" style="fill:#597B37;" width="8.9" height="8.903"/>
		
			<rect x="380.537" y="423.554" transform="matrix(0.9233 -0.384 0.384 0.9233 -134.8443 180.6618)" style="fill:#597B37;" width="8.9" height="8.902"/>
		
			<rect x="387.545" y="423.572" transform="matrix(0.9754 -0.2206 0.2206 0.9754 -84.7687 97.0244)" style="fill:#597B37;" width="8.901" height="8.903"/>
		
			<rect x="394.361" y="426.376" transform="matrix(0.8108 -0.5853 0.5853 0.8108 -176.3 314.1085)" style="fill:#597B37;" width="6.816" height="6.82"/>
		<polygon style="fill:#597B37;" points="403.374,433.817 400.218,436.096 397.934,432.936 401.097,430.657 		"/>
	</g>
	<g>
		
			<rect x="349.426" y="430.185" transform="matrix(-0.7754 -0.6315 0.6315 -0.7754 353.8084 995.1168)" style="fill:#597B37;" width="8.902" height="8.903"/>
		
			<rect x="343.1" y="425.035" transform="matrix(-0.7754 -0.6314 0.6314 -0.7754 345.8711 981.9756)" style="fill:#597B37;" width="8.901" height="8.901"/>
		
			<rect x="336.123" y="421.264" transform="matrix(-0.7754 -0.6315 0.6315 -0.7754 335.8212 970.8775)" style="fill:#597B37;" width="8.902" height="8.902"/>
		
			<rect x="330.54" y="420.723" transform="matrix(-0.8993 -0.4374 0.4374 -0.8993 450.2764 954.0422)" style="fill:#597B37;" width="8.898" height="8.905"/>
		
			<rect x="323.54" y="420.335" transform="matrix(-0.9609 -0.277 0.277 -0.9609 525.4684 923.8109)" style="fill:#597B37;" width="8.903" height="8.903"/>
		
			<rect x="318.714" y="422.804" transform="matrix(-0.7757 -0.6311 0.6311 -0.7757 302.9959 960.1169)" style="fill:#597B37;" width="6.82" height="6.816"/>
		
			<rect x="317.086" y="427.678" transform="matrix(-0.7754 -0.6314 0.6314 -0.7754 295.1462 964.2205)" style="fill:#597B37;" width="3.896" height="3.897"/>
	</g>
	<g>
		
			<rect x="359.708" y="429.575" transform="matrix(0.4911 -0.8711 0.8711 0.4911 -192.7669 538.0648)" style="fill:#597B37;" width="8.901" height="8.902"/>
		
			<rect x="363.716" y="422.469" transform="matrix(0.4913 -0.871 0.871 0.4913 -184.5599 537.8278)" style="fill:#597B37;" width="8.902" height="8.901"/>
		
			<rect x="368.834" y="416.411" transform="matrix(0.4913 -0.871 0.871 0.4913 -176.6758 539.225)" style="fill:#597B37;" width="8.903" height="8.902"/>
		
			<rect x="373.835" y="413.867" transform="matrix(0.6774 -0.7356 0.7356 0.6774 -185.6861 413.1953)" style="fill:#597B37;" width="8.901" height="8.903"/>
		
			<rect x="380.205" y="410.949" transform="matrix(0.7931 -0.6091 0.6091 0.7931 -173.4304 320.2297)" style="fill:#597B37;" width="8.902" height="8.903"/>
		<polygon style="fill:#597B37;" points="395.285,413.288 391.931,419.227 385.997,415.877 389.342,409.939 		"/>
		
			<rect x="392.817" y="414.684" transform="matrix(0.4914 -0.8709 0.8709 0.4914 -162.0808 555.7211)" style="fill:#597B37;" width="3.895" height="3.898"/>
	</g>
	<g>
		
			<rect x="350.836" y="432.84" transform="matrix(-0.9548 -0.2973 0.2973 -0.9548 564.4933 960.4414)" style="fill:#597B37;" width="8.903" height="8.902"/>
		
			<rect x="343.045" y="430.413" transform="matrix(-0.9547 -0.2974 0.2974 -0.9547 549.9219 953.4068)" style="fill:#597B37;" width="8.903" height="8.904"/>
		
			<rect x="335.169" y="429.515" transform="matrix(-0.9548 -0.2974 0.2974 -0.9548 534.8062 949.2998)" style="fill:#597B37;" width="8.901" height="8.901"/>
		
			<rect x="329.785" y="431.09" transform="matrix(-0.9975 -0.0711 0.0711 -0.9975 636.6656 893.7402)" style="fill:#597B37;" width="8.901" height="8.902"/>
		
			<rect x="323.145" y="433.334" transform="matrix(-0.9949 0.1007 -0.1007 -0.9949 697.615 840.3536)" style="fill:#597B37;" width="8.903" height="8.902"/>
		
			<rect x="319.272" y="437.883" transform="matrix(-0.9548 -0.2972 0.2972 -0.9548 499.603 958.5521)" style="fill:#597B37;" width="6.816" height="6.817"/>
		<polygon style="fill:#597B37;" points="318.644,446.893 322.363,448.054 323.523,444.33 319.801,443.174 		"/>
	</g>
	
		<rect x="354.824" y="424.847" transform="matrix(-0.9869 0.1611 -0.1611 -0.9869 782.426 797.013)" style="fill:#597B37;" width="8.158" height="10.756"/>
	
		<rect x="355.143" y="418.636" transform="matrix(-0.987 0.1609 -0.1609 -0.987 778.8942 783.0977)" style="fill:#597B37;" width="5.192" height="8.902"/>
	
		<rect x="357.256" y="435.162" transform="matrix(0.987 -0.1609 0.1609 0.987 -66.1853 63.8906)" style="fill:#597B37;" width="8.16" height="10.757"/>
	
		<rect x="360.322" y="443.194" transform="matrix(0.987 -0.1607 0.1607 0.987 -67.6346 64.1697)" style="fill:#597B37;" width="5.191" height="14.095"/>
	<polygon style="fill:#597B37;" points="365.607,456.353 362.31,456.889 363.575,464.64 366.866,464.102 	"/>
</g>
<g>
	<rect x="109.9" y="479.978" style="fill:#ECEFF0;" width="156.384" height="18.598"/>
	<polygon style="fill:#7A973C;" points="109.9,477.445 109.9,487.589 123.425,487.589 123.425,481.595 130.188,481.595 
		130.188,487.589 138.855,487.589 138.855,481.595 145.618,481.595 145.618,487.589 154.278,487.589 154.278,481.595 
		161.042,481.595 161.042,487.589 169.706,487.589 169.706,481.595 176.47,481.595 176.47,487.589 185.134,487.589 185.134,481.595 
		191.898,481.595 191.898,487.589 200.558,487.589 200.558,481.595 207.324,481.595 207.324,487.589 215.988,487.589 
		215.988,481.595 222.752,481.595 222.752,487.589 231.414,487.589 231.414,481.594 238.178,481.594 238.178,487.589 
		246.84,487.589 246.84,481.595 253.607,481.595 253.607,487.589 266.284,487.589 266.284,477.445 	"/>
</g>
<g>
	<rect x="335.456" y="479.555" style="fill:#ECEFF0;" width="147.205" height="18.599"/>
	<polygon style="fill:#7A973C;" points="335.456,477.02 335.456,487.165 348.189,487.165 348.189,481.172 354.557,481.172 
		354.557,487.165 362.711,487.165 362.711,481.172 369.075,481.172 369.075,487.165 377.232,487.165 377.232,481.172 
		383.598,481.172 383.598,487.165 391.751,487.165 391.751,481.172 398.12,481.172 398.12,487.165 406.273,487.165 406.273,481.172 
		412.643,481.172 412.643,487.165 420.792,487.165 420.792,481.172 427.161,481.172 427.161,487.165 435.318,487.165 
		435.318,481.172 441.684,481.172 441.684,487.165 449.837,487.165 449.837,481.172 456.202,481.172 456.202,487.165 
		464.357,487.165 464.357,481.172 470.723,481.172 470.723,487.165 482.66,487.165 482.66,477.02 	"/>
</g>
<g>
	<rect x="470.769" y="495.392" style="fill:#754C28;" width="12.317" height="71.189"/>
	<rect x="468.99" y="469.726" style="fill:#597B37;" width="13.18" height="72.288"/>
	<rect x="462.625" y="483.084" style="fill:#597B37;" width="25.917" height="58.145"/>
	<rect x="456.259" y="498.014" style="fill:#597B37;" width="38.189" height="42.432"/>
	<rect x="451.713" y="513.729" style="fill:#597B37;" width="50.005" height="27.5"/>
	<rect x="445.346" y="526.301" style="fill:#597B37;" width="63.651" height="15.716"/>
</g>
<rect x="145.165" y="342.825" style="fill:#D15627;" width="313.19" height="1.057"/>
<rect x="151.546" y="341.93" style="fill:#D15627;" width="300.435" height="1.058"/>
<rect x="157.111" y="341.036" style="fill:#D15627;" width="289.306" height="1.057"/>
<rect x="162.671" y="340.142" style="fill:#D15627;" width="278.181" height="1.056"/>
<rect x="168.233" y="339.246" style="fill:#D15627;" width="267.058" height="1.057"/>
<rect x="173.8" y="338.353" style="fill:#D15627;" width="255.925" height="1.057"/>
<rect x="179.362" y="337.458" style="fill:#D15627;" width="244.801" height="1.057"/>
<rect x="184.927" y="336.564" style="fill:#D15627;" width="233.67" height="1.057"/>
<rect x="190.491" y="335.67" style="fill:#D15627;" width="222.543" height="1.057"/>
<rect x="196.053" y="334.775" style="fill:#D15627;" width="211.418" height="1.057"/>
<rect x="201.616" y="333.88" style="fill:#D15627;" width="200.291" height="1.056"/>
<rect x="207.178" y="332.986" style="fill:#D15627;" width="189.164" height="1.056"/>
<rect x="212.745" y="332.091" style="fill:#D15627;" width="178.035" height="1.055"/>
<rect x="218.307" y="331.198" style="fill:#D15627;" width="166.909" height="1.055"/>
<rect x="224.056" y="330.302" style="fill:#D15627;" width="155.78" height="1.057"/>
<rect x="229.806" y="329.407" style="fill:#D15627;" width="144.655" height="1.058"/>
<rect x="234.442" y="328.513" style="fill:#D15627;" width="133.528" height="1.058"/>
<rect x="240.376" y="327.618" style="fill:#D15627;" width="122.399" height="1.058"/>
<rect x="246.308" y="326.725" style="fill:#D15627;" width="111.275" height="1.056"/>
<rect x="221.706" y="506.069" style="fill:#597B37;" width="17.803" height="12.795"/>
<rect x="365.805" y="505.79" style="fill:#597B37;" width="17.805" height="12.796"/>
<rect x="221.149" y="505.695" style="fill:#EB008B;" width="3.437" height="3.433"/>
<rect x="231.119" y="512.419" style="fill:#EB008B;" width="3.433" height="3.433"/>
<rect x="370.207" y="511.307" style="fill:#EB008B;" width="3.435" height="3.433"/>
<rect x="379.157" y="507.46" style="fill:#EB008B;" width="2.227" height="2.224"/>
<rect x="147.895" y="343.703" style="fill:#754C28;" width="308.224" height="1.484"/>
<g>
	<rect x="103.544" y="503.833" style="fill:#754C28;" width="10.855" height="62.749"/>
	<rect x="101.973" y="481.209" style="fill:#597B37;" width="11.619" height="63.718"/>
	<rect x="96.365" y="492.984" style="fill:#597B37;" width="22.839" height="51.251"/>
	<rect x="90.753" y="506.143" style="fill:#597B37;" width="33.661" height="37.401"/>
	<rect x="86.747" y="519.995" style="fill:#597B37;" width="44.077" height="24.24"/>
	<rect x="81.136" y="531.076" style="fill:#597B37;" width="56.102" height="13.853"/>
</g>
<rect x="520.633" y="436.442" style="fill:#754C28;" width="13.496" height="40.576"/>
</svg>
