<?xml version="1.0" encoding="iso-8859-1"?>
<!-- Generator: Adobe Illustrator 19.1.0, SVG Export Plug-In . SVG Version: 6.00 Build 0)  -->
<svg version="1.1" id="Layer_1" xmlns="http://www.w3.org/2000/svg" xmlns:xlink="http://www.w3.org/1999/xlink" x="0px" y="0px"
	 viewBox="0 0 566.929 408.194" style="enable-background:new 0 0 566.929 408.194;" xml:space="preserve">
<g>
	<rect x="287.105" y="353.004" style="fill:#754C29;" width="4.198" height="24.265"/>
	<rect x="286.498" y="344.256" style="fill:#597B37;" width="4.493" height="24.64"/>
	<rect x="284.329" y="348.809" style="fill:#597B37;" width="8.832" height="19.819"/>
	<rect x="282.159" y="353.898" style="fill:#597B37;" width="13.017" height="14.463"/>
	<rect x="280.61" y="359.255" style="fill:#597B37;" width="17.045" height="9.374"/>
	<rect x="278.44" y="363.54" style="fill:#597B37;" width="21.695" height="5.357"/>
</g>
<rect x="494.19" y="347.895" style="fill:#7F8C8D;stroke:#FFFFFF;stroke-miterlimit:10;" width="5.793" height="5.793"/>
<rect x="499.728" y="347.895" style="fill:#7F8C8D;stroke:#FFFFFF;stroke-miterlimit:10;" width="5.793" height="5.793"/>
<rect x="494.062" y="342.102" style="fill:#7F8C8D;stroke:#FFFFFF;stroke-miterlimit:10;" width="5.793" height="5.793"/>
<g>
	<rect x="231.246" y="355.474" style="fill:#FFFFFF;" width="48.675" height="42.087"/>
	<rect x="276.834" y="351.096" style="fill:#D1D3D4;stroke:#FFFFFF;stroke-miterlimit:10;" width="4.378" height="4.378"/>
	<rect x="272.455" y="351.096" style="fill:#D1D3D4;stroke:#FFFFFF;stroke-miterlimit:10;" width="4.378" height="4.378"/>
	<rect x="268.077" y="351.096" style="fill:#D1D3D4;stroke:#FFFFFF;stroke-miterlimit:10;" width="4.378" height="4.378"/>
	<rect x="263.698" y="351.096" style="fill:#D1D3D4;stroke:#FFFFFF;stroke-miterlimit:10;" width="4.378" height="4.378"/>
	<rect x="259.32" y="351.096" style="fill:#D1D3D4;stroke:#FFFFFF;stroke-miterlimit:10;" width="4.378" height="4.378"/>
	<rect x="255.135" y="351.096" style="fill:#D1D3D4;stroke:#FFFFFF;stroke-miterlimit:10;" width="4.378" height="4.378"/>
	<rect x="250.756" y="351.096" style="fill:#D1D3D4;stroke:#FFFFFF;stroke-miterlimit:10;" width="4.378" height="4.378"/>
	<rect x="246.378" y="351.096" style="fill:#D1D3D4;stroke:#FFFFFF;stroke-miterlimit:10;" width="4.378" height="4.378"/>
	<rect x="241.999" y="351.096" style="fill:#D1D3D4;stroke:#FFFFFF;stroke-miterlimit:10;" width="4.378" height="4.378"/>
	<rect x="237.621" y="351.096" style="fill:#D1D3D4;stroke:#FFFFFF;stroke-miterlimit:10;" width="4.378" height="4.378"/>
	<rect x="233.242" y="351.096" style="fill:#D1D3D4;stroke:#FFFFFF;stroke-miterlimit:10;" width="4.378" height="4.378"/>
	<rect x="229.057" y="351.096" style="fill:#D1D3D4;stroke:#FFFFFF;stroke-miterlimit:10;" width="4.378" height="4.378"/>
	<rect x="272.552" y="346.717" style="fill:#D1D3D4;stroke:#FFFFFF;stroke-miterlimit:10;" width="4.378" height="4.378"/>
	<rect x="268.173" y="346.717" style="fill:#D1D3D4;stroke:#FFFFFF;stroke-miterlimit:10;" width="4.378" height="4.378"/>
	<rect x="263.795" y="346.717" style="fill:#D1D3D4;stroke:#FFFFFF;stroke-miterlimit:10;" width="4.378" height="4.378"/>
	<rect x="259.417" y="346.717" style="fill:#D1D3D4;stroke:#FFFFFF;stroke-miterlimit:10;" width="4.378" height="4.378"/>
	<rect x="255.231" y="346.717" style="fill:#D1D3D4;stroke:#FFFFFF;stroke-miterlimit:10;" width="4.378" height="4.378"/>
	<rect x="250.853" y="346.717" style="fill:#D1D3D4;stroke:#FFFFFF;stroke-miterlimit:10;" width="4.378" height="4.378"/>
	<rect x="246.474" y="346.717" style="fill:#D1D3D4;stroke:#FFFFFF;stroke-miterlimit:10;" width="4.378" height="4.378"/>
	<rect x="242.096" y="346.717" style="fill:#D1D3D4;stroke:#FFFFFF;stroke-miterlimit:10;" width="4.378" height="4.378"/>
	<rect x="237.717" y="346.717" style="fill:#D1D3D4;stroke:#FFFFFF;stroke-miterlimit:10;" width="4.378" height="4.378"/>
	<rect x="233.339" y="346.717" style="fill:#D1D3D4;stroke:#FFFFFF;stroke-miterlimit:10;" width="4.378" height="4.378"/>
	<rect x="268.173" y="342.339" style="fill:#D1D3D4;stroke:#FFFFFF;stroke-miterlimit:10;" width="4.378" height="4.378"/>
	<rect x="263.795" y="342.339" style="fill:#D1D3D4;stroke:#FFFFFF;stroke-miterlimit:10;" width="4.378" height="4.378"/>
	<rect x="259.417" y="342.339" style="fill:#D1D3D4;stroke:#FFFFFF;stroke-miterlimit:10;" width="4.378" height="4.378"/>
	<rect x="255.231" y="342.339" style="fill:#D1D3D4;stroke:#FFFFFF;stroke-miterlimit:10;" width="4.378" height="4.378"/>
	<rect x="250.853" y="342.339" style="fill:#D1D3D4;stroke:#FFFFFF;stroke-miterlimit:10;" width="4.378" height="4.378"/>
	<rect x="246.474" y="342.339" style="fill:#D1D3D4;stroke:#FFFFFF;stroke-miterlimit:10;" width="4.378" height="4.378"/>
	<rect x="242.096" y="342.339" style="fill:#D1D3D4;stroke:#FFFFFF;stroke-miterlimit:10;" width="4.378" height="4.378"/>
	<rect x="237.717" y="342.339" style="fill:#D1D3D4;stroke:#FFFFFF;stroke-miterlimit:10;" width="4.378" height="4.378"/>
	<rect x="263.795" y="337.96" style="fill:#D1D3D4;stroke:#FFFFFF;stroke-miterlimit:10;" width="4.378" height="4.378"/>
	<rect x="259.417" y="337.96" style="fill:#D1D3D4;stroke:#FFFFFF;stroke-miterlimit:10;" width="4.378" height="4.378"/>
	<rect x="255.231" y="337.96" style="fill:#D1D3D4;stroke:#FFFFFF;stroke-miterlimit:10;" width="4.378" height="4.378"/>
	<rect x="250.853" y="337.96" style="fill:#D1D3D4;stroke:#FFFFFF;stroke-miterlimit:10;" width="4.378" height="4.378"/>
	<rect x="246.474" y="337.96" style="fill:#D1D3D4;stroke:#FFFFFF;stroke-miterlimit:10;" width="4.378" height="4.378"/>
	<rect x="242.096" y="337.96" style="fill:#D1D3D4;stroke:#FFFFFF;stroke-miterlimit:10;" width="4.378" height="4.378"/>
	<rect x="259.32" y="333.582" style="fill:#D1D3D4;stroke:#FFFFFF;stroke-miterlimit:10;" width="4.378" height="4.378"/>
	<rect x="255.135" y="333.582" style="fill:#D1D3D4;stroke:#FFFFFF;stroke-miterlimit:10;" width="4.378" height="4.378"/>
	<rect x="250.756" y="333.582" style="fill:#D1D3D4;stroke:#FFFFFF;stroke-miterlimit:10;" width="4.378" height="4.378"/>
	<rect x="246.378" y="333.582" style="fill:#D1D3D4;stroke:#FFFFFF;stroke-miterlimit:10;" width="4.378" height="4.378"/>
	<rect x="255.231" y="329.203" style="fill:#FFFFFF;stroke:#FFFFFF;stroke-miterlimit:10;" width="4.378" height="4.378"/>
	<rect x="250.853" y="329.203" style="fill:#FFFFFF;stroke:#FFFFFF;stroke-miterlimit:10;" width="4.378" height="4.378"/>
	<rect x="252.945" y="324.825" style="fill:#FFFFFF;stroke:#FFFFFF;stroke-miterlimit:10;" width="4.378" height="4.378"/>
</g>
<rect x="262.027" y="370.623" style="fill:#F1F2F2;" width="10.1" height="27.005"/>
<g>
	<rect x="196.797" y="358.771" style="fill:#FFFFFF;" width="48.675" height="42.087"/>
	<rect x="242.385" y="354.392" style="fill:#BCBEC0;stroke:#FFFFFF;stroke-miterlimit:10;" width="4.378" height="4.378"/>
	<rect x="238.006" y="354.392" style="fill:#BCBEC0;stroke:#FFFFFF;stroke-miterlimit:10;" width="4.378" height="4.378"/>
	<rect x="233.628" y="354.392" style="fill:#BCBEC0;stroke:#FFFFFF;stroke-miterlimit:10;" width="4.378" height="4.378"/>
	<rect x="229.249" y="354.392" style="fill:#BCBEC0;stroke:#FFFFFF;stroke-miterlimit:10;" width="4.378" height="4.378"/>
	<rect x="224.871" y="354.392" style="fill:#BCBEC0;stroke:#FFFFFF;stroke-miterlimit:10;" width="4.378" height="4.378"/>
	<rect x="220.686" y="354.392" style="fill:#BCBEC0;stroke:#FFFFFF;stroke-miterlimit:10;" width="4.378" height="4.378"/>
	<rect x="216.307" y="354.392" style="fill:#BCBEC0;stroke:#FFFFFF;stroke-miterlimit:10;" width="4.378" height="4.378"/>
	<rect x="211.929" y="354.392" style="fill:#BCBEC0;stroke:#FFFFFF;stroke-miterlimit:10;" width="4.378" height="4.378"/>
	<rect x="207.55" y="354.392" style="fill:#BCBEC0;stroke:#FFFFFF;stroke-miterlimit:10;" width="4.378" height="4.378"/>
	<rect x="203.172" y="354.392" style="fill:#BCBEC0;stroke:#FFFFFF;stroke-miterlimit:10;" width="4.378" height="4.378"/>
	<rect x="198.793" y="354.392" style="fill:#BCBEC0;stroke:#FFFFFF;stroke-miterlimit:10;" width="4.378" height="4.378"/>
	<rect x="194.608" y="354.392" style="fill:#BCBEC0;stroke:#FFFFFF;stroke-miterlimit:10;" width="4.378" height="4.378"/>
	<rect x="238.103" y="350.014" style="fill:#BCBEC0;stroke:#FFFFFF;stroke-miterlimit:10;" width="4.378" height="4.378"/>
	<rect x="233.724" y="350.014" style="fill:#BCBEC0;stroke:#FFFFFF;stroke-miterlimit:10;" width="4.378" height="4.378"/>
	<rect x="229.346" y="350.014" style="fill:#BCBEC0;stroke:#FFFFFF;stroke-miterlimit:10;" width="4.378" height="4.378"/>
	<rect x="224.967" y="350.014" style="fill:#BCBEC0;stroke:#FFFFFF;stroke-miterlimit:10;" width="4.378" height="4.378"/>
	<rect x="220.782" y="350.014" style="fill:#BCBEC0;stroke:#FFFFFF;stroke-miterlimit:10;" width="4.378" height="4.378"/>
	<rect x="216.404" y="350.014" style="fill:#BCBEC0;stroke:#FFFFFF;stroke-miterlimit:10;" width="4.378" height="4.378"/>
	<rect x="212.025" y="350.014" style="fill:#BCBEC0;stroke:#FFFFFF;stroke-miterlimit:10;" width="4.378" height="4.378"/>
	<rect x="207.647" y="350.014" style="fill:#BCBEC0;stroke:#FFFFFF;stroke-miterlimit:10;" width="4.378" height="4.378"/>
	<rect x="203.268" y="350.014" style="fill:#BCBEC0;stroke:#FFFFFF;stroke-miterlimit:10;" width="4.378" height="4.378"/>
	<rect x="198.89" y="350.014" style="fill:#BCBEC0;stroke:#FFFFFF;stroke-miterlimit:10;" width="4.378" height="4.378"/>
	<rect x="233.724" y="345.636" style="fill:#BCBEC0;stroke:#FFFFFF;stroke-miterlimit:10;" width="4.378" height="4.378"/>
	<rect x="229.346" y="345.636" style="fill:#BCBEC0;stroke:#FFFFFF;stroke-miterlimit:10;" width="4.378" height="4.378"/>
	<rect x="224.967" y="345.636" style="fill:#BCBEC0;stroke:#FFFFFF;stroke-miterlimit:10;" width="4.378" height="4.378"/>
	<rect x="220.782" y="345.636" style="fill:#BCBEC0;stroke:#FFFFFF;stroke-miterlimit:10;" width="4.378" height="4.378"/>
	<rect x="216.404" y="345.636" style="fill:#BCBEC0;stroke:#FFFFFF;stroke-miterlimit:10;" width="4.378" height="4.378"/>
	<rect x="212.025" y="345.636" style="fill:#BCBEC0;stroke:#FFFFFF;stroke-miterlimit:10;" width="4.378" height="4.378"/>
	<rect x="207.647" y="345.636" style="fill:#BCBEC0;stroke:#FFFFFF;stroke-miterlimit:10;" width="4.378" height="4.378"/>
	<rect x="203.268" y="345.636" style="fill:#BCBEC0;stroke:#FFFFFF;stroke-miterlimit:10;" width="4.378" height="4.378"/>
	<rect x="229.346" y="341.257" style="fill:#BCBEC0;stroke:#FFFFFF;stroke-miterlimit:10;" width="4.378" height="4.378"/>
	<rect x="224.967" y="341.257" style="fill:#BCBEC0;stroke:#FFFFFF;stroke-miterlimit:10;" width="4.378" height="4.378"/>
	<rect x="220.782" y="341.257" style="fill:#BCBEC0;stroke:#FFFFFF;stroke-miterlimit:10;" width="4.378" height="4.378"/>
	<rect x="216.404" y="341.257" style="fill:#BCBEC0;stroke:#FFFFFF;stroke-miterlimit:10;" width="4.378" height="4.378"/>
	<rect x="212.025" y="341.257" style="fill:#BCBEC0;stroke:#FFFFFF;stroke-miterlimit:10;" width="4.378" height="4.378"/>
	<rect x="207.647" y="341.257" style="fill:#BCBEC0;stroke:#FFFFFF;stroke-miterlimit:10;" width="4.378" height="4.378"/>
	<rect x="224.871" y="336.879" style="fill:#BCBEC0;stroke:#FFFFFF;stroke-miterlimit:10;" width="4.378" height="4.378"/>
	<rect x="220.686" y="336.879" style="fill:#BCBEC0;stroke:#FFFFFF;stroke-miterlimit:10;" width="4.378" height="4.378"/>
	<rect x="216.307" y="336.879" style="fill:#BCBEC0;stroke:#FFFFFF;stroke-miterlimit:10;" width="4.378" height="4.378"/>
	<rect x="211.929" y="336.879" style="fill:#BCBEC0;stroke:#FFFFFF;stroke-miterlimit:10;" width="4.378" height="4.378"/>
	<rect x="220.782" y="332.5" style="fill:#FFFFFF;stroke:#FFFFFF;stroke-miterlimit:10;" width="4.378" height="4.378"/>
	<rect x="216.404" y="332.5" style="fill:#FFFFFF;stroke:#FFFFFF;stroke-miterlimit:10;" width="4.378" height="4.378"/>
	<rect x="218.496" y="328.122" style="fill:#FFFFFF;stroke:#FFFFFF;stroke-miterlimit:10;" width="4.378" height="4.378"/>
</g>
<rect x="228.578" y="373.92" style="fill:#F1F2F2;" width="10.1" height="27.005"/>
<g>
	<rect x="141.415" y="354.693" style="fill:#FFFFFF;" width="59.117" height="51.116"/>
	<rect x="196.782" y="349.375" style="fill:#A7A9AC;stroke:#FFFFFF;stroke-miterlimit:10;" width="5.318" height="5.318"/>
	<rect x="191.464" y="349.375" style="fill:#A7A9AC;stroke:#FFFFFF;stroke-miterlimit:10;" width="5.318" height="5.318"/>
	<rect x="186.146" y="349.375" style="fill:#A7A9AC;stroke:#FFFFFF;stroke-miterlimit:10;" width="5.318" height="5.318"/>
	<rect x="180.829" y="349.375" style="fill:#A7A9AC;stroke:#FFFFFF;stroke-miterlimit:10;" width="5.318" height="5.318"/>
	<rect x="175.511" y="349.375" style="fill:#A7A9AC;stroke:#FFFFFF;stroke-miterlimit:10;" width="5.318" height="5.318"/>
	<rect x="170.428" y="349.375" style="fill:#A7A9AC;stroke:#FFFFFF;stroke-miterlimit:10;" width="5.318" height="5.318"/>
	<rect x="165.11" y="349.375" style="fill:#A7A9AC;stroke:#FFFFFF;stroke-miterlimit:10;" width="5.318" height="5.318"/>
	<rect x="159.792" y="349.375" style="fill:#A7A9AC;stroke:#FFFFFF;stroke-miterlimit:10;" width="5.318" height="5.318"/>
	<rect x="154.475" y="349.375" style="fill:#A7A9AC;stroke:#FFFFFF;stroke-miterlimit:10;" width="5.318" height="5.318"/>
	<rect x="149.157" y="349.375" style="fill:#A7A9AC;stroke:#FFFFFF;stroke-miterlimit:10;" width="5.318" height="5.318"/>
	<rect x="143.839" y="349.375" style="fill:#A7A9AC;stroke:#FFFFFF;stroke-miterlimit:10;" width="5.318" height="5.318"/>
	<rect x="138.756" y="349.375" style="fill:#A7A9AC;stroke:#FFFFFF;stroke-miterlimit:10;" width="5.318" height="5.318"/>
	<rect x="191.581" y="344.058" style="fill:#A7A9AC;stroke:#FFFFFF;stroke-miterlimit:10;" width="5.318" height="5.318"/>
	<rect x="186.264" y="344.058" style="fill:#A7A9AC;stroke:#FFFFFF;stroke-miterlimit:10;" width="5.318" height="5.318"/>
	<rect x="180.946" y="344.058" style="fill:#A7A9AC;stroke:#FFFFFF;stroke-miterlimit:10;" width="5.318" height="5.318"/>
	<rect x="175.628" y="344.058" style="fill:#A7A9AC;stroke:#FFFFFF;stroke-miterlimit:10;" width="5.318" height="5.318"/>
	<rect x="170.545" y="344.058" style="fill:#A7A9AC;stroke:#FFFFFF;stroke-miterlimit:10;" width="5.318" height="5.318"/>
	<rect x="165.228" y="344.058" style="fill:#A7A9AC;stroke:#FFFFFF;stroke-miterlimit:10;" width="5.318" height="5.318"/>
	<rect x="159.91" y="344.058" style="fill:#A7A9AC;stroke:#FFFFFF;stroke-miterlimit:10;" width="5.318" height="5.318"/>
	<rect x="154.592" y="344.058" style="fill:#A7A9AC;stroke:#FFFFFF;stroke-miterlimit:10;" width="5.318" height="5.318"/>
	<rect x="149.274" y="344.058" style="fill:#A7A9AC;stroke:#FFFFFF;stroke-miterlimit:10;" width="5.318" height="5.318"/>
	<rect x="143.957" y="344.058" style="fill:#A7A9AC;stroke:#FFFFFF;stroke-miterlimit:10;" width="5.318" height="5.318"/>
	<rect x="186.264" y="338.74" style="fill:#A7A9AC;stroke:#FFFFFF;stroke-miterlimit:10;" width="5.318" height="5.318"/>
	<rect x="180.946" y="338.74" style="fill:#A7A9AC;stroke:#FFFFFF;stroke-miterlimit:10;" width="5.318" height="5.318"/>
	<rect x="175.628" y="338.74" style="fill:#A7A9AC;stroke:#FFFFFF;stroke-miterlimit:10;" width="5.318" height="5.318"/>
	<rect x="170.545" y="338.74" style="fill:#A7A9AC;stroke:#FFFFFF;stroke-miterlimit:10;" width="5.318" height="5.318"/>
	<rect x="165.228" y="338.74" style="fill:#A7A9AC;stroke:#FFFFFF;stroke-miterlimit:10;" width="5.318" height="5.318"/>
	<rect x="159.91" y="338.74" style="fill:#A7A9AC;stroke:#FFFFFF;stroke-miterlimit:10;" width="5.318" height="5.318"/>
	<rect x="154.592" y="338.74" style="fill:#A7A9AC;stroke:#FFFFFF;stroke-miterlimit:10;" width="5.318" height="5.318"/>
	<rect x="149.274" y="338.74" style="fill:#A7A9AC;stroke:#FFFFFF;stroke-miterlimit:10;" width="5.318" height="5.318"/>
	<rect x="180.946" y="333.422" style="fill:#A7A9AC;stroke:#FFFFFF;stroke-miterlimit:10;" width="5.318" height="5.318"/>
	<rect x="175.628" y="333.422" style="fill:#A7A9AC;stroke:#FFFFFF;stroke-miterlimit:10;" width="5.318" height="5.318"/>
	<rect x="170.545" y="333.422" style="fill:#A7A9AC;stroke:#FFFFFF;stroke-miterlimit:10;" width="5.318" height="5.318"/>
	<rect x="165.228" y="333.422" style="fill:#A7A9AC;stroke:#FFFFFF;stroke-miterlimit:10;" width="5.318" height="5.318"/>
	<rect x="159.91" y="333.422" style="fill:#A7A9AC;stroke:#FFFFFF;stroke-miterlimit:10;" width="5.318" height="5.318"/>
	<rect x="154.592" y="333.422" style="fill:#A7A9AC;stroke:#FFFFFF;stroke-miterlimit:10;" width="5.318" height="5.318"/>
	<rect x="175.511" y="328.104" style="fill:#A7A9AC;stroke:#FFFFFF;stroke-miterlimit:10;" width="5.318" height="5.318"/>
	<rect x="170.428" y="328.104" style="fill:#A7A9AC;stroke:#FFFFFF;stroke-miterlimit:10;" width="5.318" height="5.318"/>
	<rect x="165.11" y="328.104" style="fill:#A7A9AC;stroke:#FFFFFF;stroke-miterlimit:10;" width="5.318" height="5.318"/>
	<rect x="159.792" y="328.104" style="fill:#A7A9AC;stroke:#FFFFFF;stroke-miterlimit:10;" width="5.318" height="5.318"/>
	<rect x="170.545" y="322.787" style="fill:#FFFFFF;stroke:#FFFFFF;stroke-miterlimit:10;" width="5.318" height="5.318"/>
	<rect x="165.228" y="322.787" style="fill:#FFFFFF;stroke:#FFFFFF;stroke-miterlimit:10;" width="5.318" height="5.318"/>
	<rect x="167.769" y="317.469" style="fill:#FFFFFF;stroke:#FFFFFF;stroke-miterlimit:10;" width="5.318" height="5.318"/>
</g>
<rect x="88.329" y="353.688" style="fill:#FFFFFF;" width="64.404" height="55.688"/>
<rect x="200.532" y="400.063" style="fill:#7F8C8D;" width="44.94" height="11.518"/>
<rect x="152.415" y="404.45" style="fill:#7F8C8D;" width="59.117" height="7.131"/>
<rect x="148.647" y="347.895" style="fill:#7F8C8D;stroke:#FFFFFF;stroke-miterlimit:10;" width="5.793" height="5.793"/>
<rect x="142.854" y="347.895" style="fill:#7F8C8D;stroke:#FFFFFF;stroke-miterlimit:10;" width="5.793" height="5.793"/>
<rect x="137.061" y="347.895" style="fill:#7F8C8D;stroke:#FFFFFF;stroke-miterlimit:10;" width="5.793" height="5.793"/>
<rect x="131.267" y="347.895" style="fill:#7F8C8D;stroke:#FFFFFF;stroke-miterlimit:10;" width="5.793" height="5.793"/>
<rect x="125.474" y="347.895" style="fill:#7F8C8D;stroke:#FFFFFF;stroke-miterlimit:10;" width="5.793" height="5.793"/>
<rect x="119.936" y="347.895" style="fill:#7F8C8D;stroke:#FFFFFF;stroke-miterlimit:10;" width="5.793" height="5.793"/>
<rect x="114.143" y="347.895" style="fill:#7F8C8D;stroke:#FFFFFF;stroke-miterlimit:10;" width="5.793" height="5.793"/>
<rect x="108.35" y="347.895" style="fill:#7F8C8D;stroke:#FFFFFF;stroke-miterlimit:10;" width="5.793" height="5.793"/>
<rect x="102.556" y="347.895" style="fill:#7F8C8D;stroke:#FFFFFF;stroke-miterlimit:10;" width="5.793" height="5.793"/>
<rect x="96.763" y="347.895" style="fill:#7F8C8D;stroke:#FFFFFF;stroke-miterlimit:10;" width="5.793" height="5.793"/>
<rect x="90.97" y="347.895" style="fill:#7F8C8D;stroke:#FFFFFF;stroke-miterlimit:10;" width="5.793" height="5.793"/>
<rect x="85.432" y="347.895" style="fill:#7F8C8D;stroke:#FFFFFF;stroke-miterlimit:10;" width="5.793" height="5.793"/>
<rect x="142.982" y="342.102" style="fill:#7F8C8D;stroke:#FFFFFF;stroke-miterlimit:10;" width="5.793" height="5.793"/>
<rect x="137.189" y="342.102" style="fill:#7F8C8D;stroke:#FFFFFF;stroke-miterlimit:10;" width="5.793" height="5.793"/>
<rect x="131.395" y="342.102" style="fill:#7F8C8D;stroke:#FFFFFF;stroke-miterlimit:10;" width="5.793" height="5.793"/>
<rect x="125.602" y="342.102" style="fill:#7F8C8D;stroke:#FFFFFF;stroke-miterlimit:10;" width="5.793" height="5.793"/>
<rect x="120.064" y="342.102" style="fill:#7F8C8D;stroke:#FFFFFF;stroke-miterlimit:10;" width="5.793" height="5.793"/>
<rect x="114.271" y="342.102" style="fill:#7F8C8D;stroke:#FFFFFF;stroke-miterlimit:10;" width="5.793" height="5.793"/>
<rect x="108.477" y="342.102" style="fill:#7F8C8D;stroke:#FFFFFF;stroke-miterlimit:10;" width="5.793" height="5.793"/>
<rect x="102.684" y="342.102" style="fill:#7F8C8D;stroke:#FFFFFF;stroke-miterlimit:10;" width="5.793" height="5.793"/>
<rect x="96.891" y="342.102" style="fill:#7F8C8D;stroke:#FFFFFF;stroke-miterlimit:10;" width="5.793" height="5.793"/>
<rect x="91.097" y="342.102" style="fill:#7F8C8D;stroke:#FFFFFF;stroke-miterlimit:10;" width="5.793" height="5.793"/>
<rect x="137.189" y="336.308" style="fill:#7F8C8D;stroke:#FFFFFF;stroke-miterlimit:10;" width="5.793" height="5.793"/>
<rect x="131.395" y="336.308" style="fill:#7F8C8D;stroke:#FFFFFF;stroke-miterlimit:10;" width="5.793" height="5.793"/>
<rect x="125.602" y="336.308" style="fill:#7F8C8D;stroke:#FFFFFF;stroke-miterlimit:10;" width="5.793" height="5.793"/>
<rect x="120.064" y="336.308" style="fill:#7F8C8D;stroke:#FFFFFF;stroke-miterlimit:10;" width="5.793" height="5.793"/>
<rect x="114.271" y="336.308" style="fill:#7F8C8D;stroke:#FFFFFF;stroke-miterlimit:10;" width="5.793" height="5.793"/>
<rect x="108.477" y="336.308" style="fill:#7F8C8D;stroke:#FFFFFF;stroke-miterlimit:10;" width="5.793" height="5.793"/>
<rect x="102.684" y="336.308" style="fill:#7F8C8D;stroke:#FFFFFF;stroke-miterlimit:10;" width="5.793" height="5.793"/>
<rect x="96.891" y="336.308" style="fill:#7F8C8D;stroke:#FFFFFF;stroke-miterlimit:10;" width="5.793" height="5.793"/>
<rect x="131.395" y="330.515" style="fill:#7F8C8D;stroke:#FFFFFF;stroke-miterlimit:10;" width="5.793" height="5.793"/>
<rect x="125.602" y="330.515" style="fill:#7F8C8D;stroke:#FFFFFF;stroke-miterlimit:10;" width="5.793" height="5.793"/>
<rect x="120.064" y="330.515" style="fill:#7F8C8D;stroke:#FFFFFF;stroke-miterlimit:10;" width="5.793" height="5.793"/>
<rect x="114.271" y="330.515" style="fill:#7F8C8D;stroke:#FFFFFF;stroke-miterlimit:10;" width="5.793" height="5.793"/>
<rect x="108.477" y="330.515" style="fill:#7F8C8D;stroke:#FFFFFF;stroke-miterlimit:10;" width="5.793" height="5.793"/>
<rect x="102.684" y="330.515" style="fill:#7F8C8D;stroke:#FFFFFF;stroke-miterlimit:10;" width="5.793" height="5.793"/>
<rect x="125.474" y="324.722" style="fill:#7F8C8D;stroke:#FFFFFF;stroke-miterlimit:10;" width="5.793" height="5.793"/>
<rect x="119.936" y="324.722" style="fill:#7F8C8D;stroke:#FFFFFF;stroke-miterlimit:10;" width="5.793" height="5.793"/>
<rect x="114.143" y="324.722" style="fill:#7F8C8D;stroke:#FFFFFF;stroke-miterlimit:10;" width="5.793" height="5.793"/>
<rect x="108.35" y="324.722" style="fill:#7F8C8D;stroke:#FFFFFF;stroke-miterlimit:10;" width="5.793" height="5.793"/>
<rect x="120.064" y="318.928" style="fill:#FFFFFF;stroke:#FFFFFF;stroke-miterlimit:10;" width="5.793" height="5.793"/>
<rect x="114.271" y="318.928" style="fill:#FFFFFF;stroke:#FFFFFF;stroke-miterlimit:10;" width="5.793" height="5.793"/>
<rect x="117.04" y="313.135" style="fill:#FFFFFF;stroke:#FFFFFF;stroke-miterlimit:10;" width="5.793" height="5.793"/>
<rect x="128.499" y="376.578" style="fill:#F1F2F2;" width="12.267" height="32.798"/>
<rect x="180.013" y="371.315" style="fill:#F1F2F2;" width="11.568" height="30.931"/>
<rect x="245.472" y="396.766" style="fill:#7F8C8D;" width="100.009" height="14.815"/>
<g>
	<rect x="301.525" y="339.325" style="fill:#754C29;" width="3.328" height="19.239"/>
	<rect x="301.043" y="332.388" style="fill:#597B37;" width="3.563" height="19.537"/>
	<rect x="299.324" y="335.999" style="fill:#597B37;" width="7.003" height="15.714"/>
	<rect x="297.603" y="340.033" style="fill:#597B37;" width="10.321" height="11.468"/>
	<rect x="296.374" y="344.28" style="fill:#597B37;" width="13.514" height="7.432"/>
	<rect x="294.654" y="347.678" style="fill:#597B37;" width="17.201" height="4.247"/>
</g>
<g>
	<rect x="311.032" y="355.474" style="fill:#FFFFFF;" width="48.675" height="42.087"/>
	<rect x="309.741" y="351.096" style="fill:#D1D3D4;stroke:#FFFFFF;stroke-miterlimit:10;" width="4.378" height="4.378"/>
	<rect x="314.119" y="351.096" style="fill:#D1D3D4;stroke:#FFFFFF;stroke-miterlimit:10;" width="4.378" height="4.378"/>
	<rect x="318.498" y="351.096" style="fill:#D1D3D4;stroke:#FFFFFF;stroke-miterlimit:10;" width="4.378" height="4.378"/>
	<rect x="322.876" y="351.096" style="fill:#D1D3D4;stroke:#FFFFFF;stroke-miterlimit:10;" width="4.378" height="4.378"/>
	<rect x="327.255" y="351.096" style="fill:#D1D3D4;stroke:#FFFFFF;stroke-miterlimit:10;" width="4.378" height="4.378"/>
	<rect x="331.44" y="351.096" style="fill:#D1D3D4;stroke:#FFFFFF;stroke-miterlimit:10;" width="4.378" height="4.378"/>
	<rect x="335.818" y="351.096" style="fill:#D1D3D4;stroke:#FFFFFF;stroke-miterlimit:10;" width="4.378" height="4.378"/>
	<rect x="340.197" y="351.096" style="fill:#D1D3D4;stroke:#FFFFFF;stroke-miterlimit:10;" width="4.378" height="4.378"/>
	<rect x="344.575" y="351.096" style="fill:#D1D3D4;stroke:#FFFFFF;stroke-miterlimit:10;" width="4.378" height="4.378"/>
	<rect x="348.954" y="351.096" style="fill:#D1D3D4;stroke:#FFFFFF;stroke-miterlimit:10;" width="4.378" height="4.378"/>
	<rect x="353.332" y="351.096" style="fill:#D1D3D4;stroke:#FFFFFF;stroke-miterlimit:10;" width="4.378" height="4.378"/>
	<rect x="357.517" y="351.096" style="fill:#D1D3D4;stroke:#FFFFFF;stroke-miterlimit:10;" width="4.378" height="4.378"/>
	<rect x="314.023" y="346.717" style="fill:#D1D3D4;stroke:#FFFFFF;stroke-miterlimit:10;" width="4.378" height="4.378"/>
	<rect x="318.401" y="346.717" style="fill:#D1D3D4;stroke:#FFFFFF;stroke-miterlimit:10;" width="4.378" height="4.378"/>
	<rect x="322.78" y="346.717" style="fill:#D1D3D4;stroke:#FFFFFF;stroke-miterlimit:10;" width="4.378" height="4.378"/>
	<rect x="327.158" y="346.717" style="fill:#D1D3D4;stroke:#FFFFFF;stroke-miterlimit:10;" width="4.378" height="4.378"/>
	<rect x="331.343" y="346.717" style="fill:#D1D3D4;stroke:#FFFFFF;stroke-miterlimit:10;" width="4.378" height="4.378"/>
	<rect x="335.722" y="346.717" style="fill:#D1D3D4;stroke:#FFFFFF;stroke-miterlimit:10;" width="4.378" height="4.378"/>
	<rect x="340.1" y="346.717" style="fill:#D1D3D4;stroke:#FFFFFF;stroke-miterlimit:10;" width="4.378" height="4.378"/>
	<rect x="344.479" y="346.717" style="fill:#D1D3D4;stroke:#FFFFFF;stroke-miterlimit:10;" width="4.378" height="4.378"/>
	<rect x="348.857" y="346.717" style="fill:#D1D3D4;stroke:#FFFFFF;stroke-miterlimit:10;" width="4.378" height="4.378"/>
	<rect x="353.236" y="346.717" style="fill:#D1D3D4;stroke:#FFFFFF;stroke-miterlimit:10;" width="4.378" height="4.378"/>
	<rect x="318.401" y="342.339" style="fill:#D1D3D4;stroke:#FFFFFF;stroke-miterlimit:10;" width="4.378" height="4.378"/>
	<rect x="322.78" y="342.339" style="fill:#D1D3D4;stroke:#FFFFFF;stroke-miterlimit:10;" width="4.378" height="4.378"/>
	<rect x="327.158" y="342.339" style="fill:#D1D3D4;stroke:#FFFFFF;stroke-miterlimit:10;" width="4.378" height="4.378"/>
	<rect x="331.343" y="342.339" style="fill:#D1D3D4;stroke:#FFFFFF;stroke-miterlimit:10;" width="4.378" height="4.378"/>
	<rect x="335.722" y="342.339" style="fill:#D1D3D4;stroke:#FFFFFF;stroke-miterlimit:10;" width="4.378" height="4.378"/>
	<rect x="340.1" y="342.339" style="fill:#D1D3D4;stroke:#FFFFFF;stroke-miterlimit:10;" width="4.378" height="4.378"/>
	<rect x="344.479" y="342.339" style="fill:#D1D3D4;stroke:#FFFFFF;stroke-miterlimit:10;" width="4.378" height="4.378"/>
	<rect x="348.857" y="342.339" style="fill:#D1D3D4;stroke:#FFFFFF;stroke-miterlimit:10;" width="4.378" height="4.378"/>
	<rect x="322.78" y="337.96" style="fill:#D1D3D4;stroke:#FFFFFF;stroke-miterlimit:10;" width="4.378" height="4.378"/>
	<rect x="327.158" y="337.96" style="fill:#D1D3D4;stroke:#FFFFFF;stroke-miterlimit:10;" width="4.378" height="4.378"/>
	<rect x="331.343" y="337.96" style="fill:#D1D3D4;stroke:#FFFFFF;stroke-miterlimit:10;" width="4.378" height="4.378"/>
	<rect x="335.722" y="337.96" style="fill:#D1D3D4;stroke:#FFFFFF;stroke-miterlimit:10;" width="4.378" height="4.378"/>
	<rect x="340.1" y="337.96" style="fill:#D1D3D4;stroke:#FFFFFF;stroke-miterlimit:10;" width="4.378" height="4.378"/>
	<rect x="344.479" y="337.96" style="fill:#D1D3D4;stroke:#FFFFFF;stroke-miterlimit:10;" width="4.378" height="4.378"/>
	<rect x="327.255" y="333.582" style="fill:#D1D3D4;stroke:#FFFFFF;stroke-miterlimit:10;" width="4.378" height="4.378"/>
	<rect x="331.44" y="333.582" style="fill:#D1D3D4;stroke:#FFFFFF;stroke-miterlimit:10;" width="4.378" height="4.378"/>
	<rect x="335.818" y="333.582" style="fill:#D1D3D4;stroke:#FFFFFF;stroke-miterlimit:10;" width="4.378" height="4.378"/>
	<rect x="340.197" y="333.582" style="fill:#D1D3D4;stroke:#FFFFFF;stroke-miterlimit:10;" width="4.378" height="4.378"/>
	<rect x="331.343" y="329.203" style="fill:#FFFFFF;stroke:#FFFFFF;stroke-miterlimit:10;" width="4.378" height="4.378"/>
	<rect x="335.722" y="329.203" style="fill:#FFFFFF;stroke:#FFFFFF;stroke-miterlimit:10;" width="4.378" height="4.378"/>
	<rect x="333.629" y="324.825" style="fill:#FFFFFF;stroke:#FFFFFF;stroke-miterlimit:10;" width="4.378" height="4.378"/>
</g>
<rect x="318.826" y="370.623" style="fill:#F1F2F2;" width="10.1" height="27.005"/>
<g>
	<rect x="345.481" y="358.771" style="fill:#FFFFFF;" width="48.675" height="42.087"/>
	<rect x="344.19" y="354.392" style="fill:#BCBEC0;stroke:#FFFFFF;stroke-miterlimit:10;" width="4.378" height="4.378"/>
	<rect x="348.568" y="354.392" style="fill:#BCBEC0;stroke:#FFFFFF;stroke-miterlimit:10;" width="4.378" height="4.378"/>
	<rect x="352.947" y="354.392" style="fill:#BCBEC0;stroke:#FFFFFF;stroke-miterlimit:10;" width="4.378" height="4.378"/>
	<rect x="357.325" y="354.392" style="fill:#BCBEC0;stroke:#FFFFFF;stroke-miterlimit:10;" width="4.378" height="4.378"/>
	<rect x="361.704" y="354.392" style="fill:#BCBEC0;stroke:#FFFFFF;stroke-miterlimit:10;" width="4.378" height="4.378"/>
	<rect x="365.889" y="354.392" style="fill:#BCBEC0;stroke:#FFFFFF;stroke-miterlimit:10;" width="4.378" height="4.378"/>
	<rect x="370.267" y="354.392" style="fill:#BCBEC0;stroke:#FFFFFF;stroke-miterlimit:10;" width="4.378" height="4.378"/>
	<rect x="374.646" y="354.392" style="fill:#BCBEC0;stroke:#FFFFFF;stroke-miterlimit:10;" width="4.378" height="4.378"/>
	<rect x="379.024" y="354.392" style="fill:#BCBEC0;stroke:#FFFFFF;stroke-miterlimit:10;" width="4.378" height="4.378"/>
	<rect x="383.403" y="354.392" style="fill:#BCBEC0;stroke:#FFFFFF;stroke-miterlimit:10;" width="4.378" height="4.378"/>
	<rect x="387.781" y="354.392" style="fill:#BCBEC0;stroke:#FFFFFF;stroke-miterlimit:10;" width="4.378" height="4.378"/>
	<rect x="391.966" y="354.392" style="fill:#BCBEC0;stroke:#FFFFFF;stroke-miterlimit:10;" width="4.378" height="4.378"/>
	<rect x="348.472" y="350.014" style="fill:#BCBEC0;stroke:#FFFFFF;stroke-miterlimit:10;" width="4.378" height="4.378"/>
	<rect x="352.85" y="350.014" style="fill:#BCBEC0;stroke:#FFFFFF;stroke-miterlimit:10;" width="4.378" height="4.378"/>
	<rect x="357.229" y="350.014" style="fill:#BCBEC0;stroke:#FFFFFF;stroke-miterlimit:10;" width="4.378" height="4.378"/>
	<rect x="361.607" y="350.014" style="fill:#BCBEC0;stroke:#FFFFFF;stroke-miterlimit:10;" width="4.378" height="4.378"/>
	<rect x="365.792" y="350.014" style="fill:#BCBEC0;stroke:#FFFFFF;stroke-miterlimit:10;" width="4.378" height="4.378"/>
	<rect x="370.171" y="350.014" style="fill:#BCBEC0;stroke:#FFFFFF;stroke-miterlimit:10;" width="4.378" height="4.378"/>
	<rect x="374.549" y="350.014" style="fill:#BCBEC0;stroke:#FFFFFF;stroke-miterlimit:10;" width="4.378" height="4.378"/>
	<rect x="378.928" y="350.014" style="fill:#BCBEC0;stroke:#FFFFFF;stroke-miterlimit:10;" width="4.378" height="4.378"/>
	<rect x="383.306" y="350.014" style="fill:#BCBEC0;stroke:#FFFFFF;stroke-miterlimit:10;" width="4.378" height="4.378"/>
	<rect x="387.685" y="350.014" style="fill:#BCBEC0;stroke:#FFFFFF;stroke-miterlimit:10;" width="4.378" height="4.378"/>
	<rect x="352.85" y="345.636" style="fill:#BCBEC0;stroke:#FFFFFF;stroke-miterlimit:10;" width="4.378" height="4.378"/>
	<rect x="357.229" y="345.636" style="fill:#BCBEC0;stroke:#FFFFFF;stroke-miterlimit:10;" width="4.378" height="4.378"/>
	<rect x="361.607" y="345.636" style="fill:#BCBEC0;stroke:#FFFFFF;stroke-miterlimit:10;" width="4.378" height="4.378"/>
	<rect x="365.792" y="345.636" style="fill:#BCBEC0;stroke:#FFFFFF;stroke-miterlimit:10;" width="4.378" height="4.378"/>
	<rect x="370.171" y="345.636" style="fill:#BCBEC0;stroke:#FFFFFF;stroke-miterlimit:10;" width="4.378" height="4.378"/>
	<rect x="374.549" y="345.636" style="fill:#BCBEC0;stroke:#FFFFFF;stroke-miterlimit:10;" width="4.378" height="4.378"/>
	<rect x="378.928" y="345.636" style="fill:#BCBEC0;stroke:#FFFFFF;stroke-miterlimit:10;" width="4.378" height="4.378"/>
	<rect x="383.306" y="345.636" style="fill:#BCBEC0;stroke:#FFFFFF;stroke-miterlimit:10;" width="4.378" height="4.378"/>
	<rect x="357.229" y="341.257" style="fill:#BCBEC0;stroke:#FFFFFF;stroke-miterlimit:10;" width="4.378" height="4.378"/>
	<rect x="361.607" y="341.257" style="fill:#BCBEC0;stroke:#FFFFFF;stroke-miterlimit:10;" width="4.378" height="4.378"/>
	<rect x="365.792" y="341.257" style="fill:#BCBEC0;stroke:#FFFFFF;stroke-miterlimit:10;" width="4.378" height="4.378"/>
	<rect x="370.171" y="341.257" style="fill:#BCBEC0;stroke:#FFFFFF;stroke-miterlimit:10;" width="4.378" height="4.378"/>
	<rect x="374.549" y="341.257" style="fill:#BCBEC0;stroke:#FFFFFF;stroke-miterlimit:10;" width="4.378" height="4.378"/>
	<rect x="378.928" y="341.257" style="fill:#BCBEC0;stroke:#FFFFFF;stroke-miterlimit:10;" width="4.378" height="4.378"/>
	<rect x="361.704" y="336.879" style="fill:#BCBEC0;stroke:#FFFFFF;stroke-miterlimit:10;" width="4.378" height="4.378"/>
	<rect x="365.889" y="336.879" style="fill:#BCBEC0;stroke:#FFFFFF;stroke-miterlimit:10;" width="4.378" height="4.378"/>
	<rect x="370.267" y="336.879" style="fill:#BCBEC0;stroke:#FFFFFF;stroke-miterlimit:10;" width="4.378" height="4.378"/>
	<rect x="374.646" y="336.879" style="fill:#BCBEC0;stroke:#FFFFFF;stroke-miterlimit:10;" width="4.378" height="4.378"/>
	<rect x="365.792" y="332.5" style="fill:#FFFFFF;stroke:#FFFFFF;stroke-miterlimit:10;" width="4.378" height="4.378"/>
	<rect x="370.171" y="332.5" style="fill:#FFFFFF;stroke:#FFFFFF;stroke-miterlimit:10;" width="4.378" height="4.378"/>
	<rect x="368.078" y="328.122" style="fill:#FFFFFF;stroke:#FFFFFF;stroke-miterlimit:10;" width="4.378" height="4.378"/>
</g>
<rect x="352.275" y="373.92" style="fill:#F1F2F2;" width="10.1" height="27.005"/>
<g>
	<rect x="390.421" y="354.693" style="fill:#FFFFFF;" width="59.117" height="51.116"/>
	<rect x="388.853" y="349.375" style="fill:#A7A9AC;stroke:#FFFFFF;stroke-miterlimit:10;" width="5.318" height="5.318"/>
	<rect x="394.171" y="349.375" style="fill:#A7A9AC;stroke:#FFFFFF;stroke-miterlimit:10;" width="5.318" height="5.318"/>
	<rect x="399.489" y="349.375" style="fill:#A7A9AC;stroke:#FFFFFF;stroke-miterlimit:10;" width="5.318" height="5.318"/>
	<rect x="404.807" y="349.375" style="fill:#A7A9AC;stroke:#FFFFFF;stroke-miterlimit:10;" width="5.318" height="5.318"/>
	<rect x="410.124" y="349.375" style="fill:#A7A9AC;stroke:#FFFFFF;stroke-miterlimit:10;" width="5.318" height="5.318"/>
	<rect x="415.207" y="349.375" style="fill:#A7A9AC;stroke:#FFFFFF;stroke-miterlimit:10;" width="5.318" height="5.318"/>
	<rect x="420.525" y="349.375" style="fill:#A7A9AC;stroke:#FFFFFF;stroke-miterlimit:10;" width="5.318" height="5.318"/>
	<rect x="425.843" y="349.375" style="fill:#A7A9AC;stroke:#FFFFFF;stroke-miterlimit:10;" width="5.318" height="5.318"/>
	<rect x="431.161" y="349.375" style="fill:#A7A9AC;stroke:#FFFFFF;stroke-miterlimit:10;" width="5.318" height="5.318"/>
	<rect x="436.478" y="349.375" style="fill:#A7A9AC;stroke:#FFFFFF;stroke-miterlimit:10;" width="5.318" height="5.318"/>
	<rect x="441.796" y="349.375" style="fill:#A7A9AC;stroke:#FFFFFF;stroke-miterlimit:10;" width="5.318" height="5.318"/>
	<rect x="446.879" y="349.375" style="fill:#A7A9AC;stroke:#FFFFFF;stroke-miterlimit:10;" width="5.318" height="5.318"/>
	<rect x="394.054" y="344.058" style="fill:#A7A9AC;stroke:#FFFFFF;stroke-miterlimit:10;" width="5.318" height="5.318"/>
	<rect x="399.372" y="344.058" style="fill:#A7A9AC;stroke:#FFFFFF;stroke-miterlimit:10;" width="5.318" height="5.318"/>
	<rect x="404.689" y="344.058" style="fill:#A7A9AC;stroke:#FFFFFF;stroke-miterlimit:10;" width="5.318" height="5.318"/>
	<rect x="410.007" y="344.058" style="fill:#A7A9AC;stroke:#FFFFFF;stroke-miterlimit:10;" width="5.318" height="5.318"/>
	<rect x="415.09" y="344.058" style="fill:#A7A9AC;stroke:#FFFFFF;stroke-miterlimit:10;" width="5.318" height="5.318"/>
	<rect x="420.408" y="344.058" style="fill:#A7A9AC;stroke:#FFFFFF;stroke-miterlimit:10;" width="5.318" height="5.318"/>
	<rect x="425.725" y="344.058" style="fill:#A7A9AC;stroke:#FFFFFF;stroke-miterlimit:10;" width="5.318" height="5.318"/>
	<rect x="431.043" y="344.058" style="fill:#A7A9AC;stroke:#FFFFFF;stroke-miterlimit:10;" width="5.318" height="5.318"/>
	<rect x="436.361" y="344.058" style="fill:#A7A9AC;stroke:#FFFFFF;stroke-miterlimit:10;" width="5.318" height="5.318"/>
	<rect x="441.679" y="344.058" style="fill:#A7A9AC;stroke:#FFFFFF;stroke-miterlimit:10;" width="5.318" height="5.318"/>
	<rect x="399.372" y="338.74" style="fill:#A7A9AC;stroke:#FFFFFF;stroke-miterlimit:10;" width="5.318" height="5.318"/>
	<rect x="404.689" y="338.74" style="fill:#A7A9AC;stroke:#FFFFFF;stroke-miterlimit:10;" width="5.318" height="5.318"/>
	<rect x="410.007" y="338.74" style="fill:#A7A9AC;stroke:#FFFFFF;stroke-miterlimit:10;" width="5.318" height="5.318"/>
	<rect x="415.09" y="338.74" style="fill:#A7A9AC;stroke:#FFFFFF;stroke-miterlimit:10;" width="5.318" height="5.318"/>
	<rect x="420.408" y="338.74" style="fill:#A7A9AC;stroke:#FFFFFF;stroke-miterlimit:10;" width="5.318" height="5.318"/>
	<rect x="425.725" y="338.74" style="fill:#A7A9AC;stroke:#FFFFFF;stroke-miterlimit:10;" width="5.318" height="5.318"/>
	<rect x="431.043" y="338.74" style="fill:#A7A9AC;stroke:#FFFFFF;stroke-miterlimit:10;" width="5.318" height="5.318"/>
	<rect x="436.361" y="338.74" style="fill:#A7A9AC;stroke:#FFFFFF;stroke-miterlimit:10;" width="5.318" height="5.318"/>
	<rect x="404.689" y="333.422" style="fill:#A7A9AC;stroke:#FFFFFF;stroke-miterlimit:10;" width="5.318" height="5.318"/>
	<rect x="410.007" y="333.422" style="fill:#A7A9AC;stroke:#FFFFFF;stroke-miterlimit:10;" width="5.318" height="5.318"/>
	<rect x="415.09" y="333.422" style="fill:#A7A9AC;stroke:#FFFFFF;stroke-miterlimit:10;" width="5.318" height="5.318"/>
	<rect x="420.408" y="333.422" style="fill:#A7A9AC;stroke:#FFFFFF;stroke-miterlimit:10;" width="5.318" height="5.318"/>
	<rect x="425.725" y="333.422" style="fill:#A7A9AC;stroke:#FFFFFF;stroke-miterlimit:10;" width="5.318" height="5.318"/>
	<rect x="431.043" y="333.422" style="fill:#A7A9AC;stroke:#FFFFFF;stroke-miterlimit:10;" width="5.318" height="5.318"/>
	<rect x="410.124" y="328.104" style="fill:#A7A9AC;stroke:#FFFFFF;stroke-miterlimit:10;" width="5.318" height="5.318"/>
	<rect x="415.207" y="328.104" style="fill:#A7A9AC;stroke:#FFFFFF;stroke-miterlimit:10;" width="5.318" height="5.318"/>
	<rect x="420.525" y="328.104" style="fill:#A7A9AC;stroke:#FFFFFF;stroke-miterlimit:10;" width="5.318" height="5.318"/>
	<rect x="425.843" y="328.104" style="fill:#A7A9AC;stroke:#FFFFFF;stroke-miterlimit:10;" width="5.318" height="5.318"/>
	<rect x="415.09" y="322.787" style="fill:#FFFFFF;stroke:#FFFFFF;stroke-miterlimit:10;" width="5.318" height="5.318"/>
	<rect x="420.408" y="322.787" style="fill:#FFFFFF;stroke:#FFFFFF;stroke-miterlimit:10;" width="5.318" height="5.318"/>
	<rect x="417.866" y="317.469" style="fill:#FFFFFF;stroke:#FFFFFF;stroke-miterlimit:10;" width="5.318" height="5.318"/>
</g>
<rect x="438.22" y="353.688" style="fill:#FFFFFF;" width="64.404" height="55.688"/>
<rect x="345.481" y="400.063" style="fill:#7F8C8D;" width="44.94" height="11.518"/>
<rect x="379.421" y="404.45" style="fill:#7F8C8D;" width="59.117" height="7.131"/>
<rect x="436.512" y="347.895" style="fill:#7F8C8D;stroke:#FFFFFF;stroke-miterlimit:10;" width="5.793" height="5.793"/>
<rect x="442.306" y="347.895" style="fill:#7F8C8D;stroke:#FFFFFF;stroke-miterlimit:10;" width="5.793" height="5.793"/>
<rect x="448.099" y="347.895" style="fill:#7F8C8D;stroke:#FFFFFF;stroke-miterlimit:10;" width="5.793" height="5.793"/>
<rect x="453.892" y="347.895" style="fill:#7F8C8D;stroke:#FFFFFF;stroke-miterlimit:10;" width="5.793" height="5.793"/>
<rect x="459.686" y="347.895" style="fill:#7F8C8D;stroke:#FFFFFF;stroke-miterlimit:10;" width="5.793" height="5.793"/>
<rect x="465.223" y="347.895" style="fill:#7F8C8D;stroke:#FFFFFF;stroke-miterlimit:10;" width="5.793" height="5.793"/>
<rect x="471.017" y="347.895" style="fill:#7F8C8D;stroke:#FFFFFF;stroke-miterlimit:10;" width="5.793" height="5.793"/>
<rect x="476.81" y="347.895" style="fill:#7F8C8D;stroke:#FFFFFF;stroke-miterlimit:10;" width="5.793" height="5.793"/>
<rect x="482.603" y="347.895" style="fill:#7F8C8D;stroke:#FFFFFF;stroke-miterlimit:10;" width="5.793" height="5.793"/>
<rect x="488.397" y="347.895" style="fill:#7F8C8D;stroke:#FFFFFF;stroke-miterlimit:10;" width="5.793" height="5.793"/>
<rect x="442.178" y="342.102" style="fill:#7F8C8D;stroke:#FFFFFF;stroke-miterlimit:10;" width="5.793" height="5.793"/>
<rect x="447.971" y="342.102" style="fill:#7F8C8D;stroke:#FFFFFF;stroke-miterlimit:10;" width="5.793" height="5.793"/>
<rect x="453.764" y="342.102" style="fill:#7F8C8D;stroke:#FFFFFF;stroke-miterlimit:10;" width="5.793" height="5.793"/>
<rect x="459.558" y="342.102" style="fill:#7F8C8D;stroke:#FFFFFF;stroke-miterlimit:10;" width="5.793" height="5.793"/>
<rect x="465.096" y="342.102" style="fill:#7F8C8D;stroke:#FFFFFF;stroke-miterlimit:10;" width="5.793" height="5.793"/>
<rect x="470.889" y="342.102" style="fill:#7F8C8D;stroke:#FFFFFF;stroke-miterlimit:10;" width="5.793" height="5.793"/>
<rect x="476.682" y="342.102" style="fill:#7F8C8D;stroke:#FFFFFF;stroke-miterlimit:10;" width="5.793" height="5.793"/>
<rect x="482.476" y="342.102" style="fill:#7F8C8D;stroke:#FFFFFF;stroke-miterlimit:10;" width="5.793" height="5.793"/>
<rect x="488.269" y="342.102" style="fill:#7F8C8D;stroke:#FFFFFF;stroke-miterlimit:10;" width="5.793" height="5.793"/>
<rect x="447.971" y="336.308" style="fill:#7F8C8D;stroke:#FFFFFF;stroke-miterlimit:10;" width="5.793" height="5.793"/>
<rect x="453.764" y="336.308" style="fill:#7F8C8D;stroke:#FFFFFF;stroke-miterlimit:10;" width="5.793" height="5.793"/>
<rect x="459.558" y="336.308" style="fill:#7F8C8D;stroke:#FFFFFF;stroke-miterlimit:10;" width="5.793" height="5.793"/>
<rect x="465.096" y="336.308" style="fill:#7F8C8D;stroke:#FFFFFF;stroke-miterlimit:10;" width="5.793" height="5.793"/>
<rect x="470.889" y="336.308" style="fill:#7F8C8D;stroke:#FFFFFF;stroke-miterlimit:10;" width="5.793" height="5.793"/>
<rect x="476.682" y="336.308" style="fill:#7F8C8D;stroke:#FFFFFF;stroke-miterlimit:10;" width="5.793" height="5.793"/>
<rect x="482.476" y="336.308" style="fill:#7F8C8D;stroke:#FFFFFF;stroke-miterlimit:10;" width="5.793" height="5.793"/>
<rect x="488.269" y="336.308" style="fill:#7F8C8D;stroke:#FFFFFF;stroke-miterlimit:10;" width="5.793" height="5.793"/>
<rect x="453.764" y="330.515" style="fill:#7F8C8D;stroke:#FFFFFF;stroke-miterlimit:10;" width="5.793" height="5.793"/>
<rect x="459.558" y="330.515" style="fill:#7F8C8D;stroke:#FFFFFF;stroke-miterlimit:10;" width="5.793" height="5.793"/>
<rect x="465.096" y="330.515" style="fill:#7F8C8D;stroke:#FFFFFF;stroke-miterlimit:10;" width="5.793" height="5.793"/>
<rect x="470.889" y="330.515" style="fill:#7F8C8D;stroke:#FFFFFF;stroke-miterlimit:10;" width="5.793" height="5.793"/>
<rect x="476.682" y="330.515" style="fill:#7F8C8D;stroke:#FFFFFF;stroke-miterlimit:10;" width="5.793" height="5.793"/>
<rect x="482.476" y="330.515" style="fill:#7F8C8D;stroke:#FFFFFF;stroke-miterlimit:10;" width="5.793" height="5.793"/>
<rect x="459.686" y="324.722" style="fill:#7F8C8D;stroke:#FFFFFF;stroke-miterlimit:10;" width="5.793" height="5.793"/>
<rect x="465.223" y="324.722" style="fill:#7F8C8D;stroke:#FFFFFF;stroke-miterlimit:10;" width="5.793" height="5.793"/>
<rect x="471.017" y="324.722" style="fill:#7F8C8D;stroke:#FFFFFF;stroke-miterlimit:10;" width="5.793" height="5.793"/>
<rect x="476.81" y="324.722" style="fill:#7F8C8D;stroke:#FFFFFF;stroke-miterlimit:10;" width="5.793" height="5.793"/>
<rect x="465.096" y="318.928" style="fill:#FFFFFF;stroke:#FFFFFF;stroke-miterlimit:10;" width="5.793" height="5.793"/>
<rect x="470.889" y="318.928" style="fill:#FFFFFF;stroke:#FFFFFF;stroke-miterlimit:10;" width="5.793" height="5.793"/>
<rect x="468.12" y="313.135" style="fill:#FFFFFF;stroke:#FFFFFF;stroke-miterlimit:10;" width="5.793" height="5.793"/>
<rect x="450.188" y="376.578" style="fill:#F1F2F2;" width="12.267" height="32.798"/>
<rect x="399.372" y="371.315" style="fill:#F1F2F2;" width="11.568" height="30.931"/>
<g>
	<rect x="66.777" y="352.189" style="fill:#754C29;" width="4.198" height="24.265"/>
	<rect x="66.17" y="343.441" style="fill:#597B37;" width="4.493" height="24.64"/>
	<rect x="64.001" y="347.994" style="fill:#597B37;" width="8.832" height="19.819"/>
	<rect x="61.831" y="353.083" style="fill:#597B37;" width="13.017" height="14.463"/>
	<rect x="60.282" y="358.44" style="fill:#597B37;" width="17.045" height="9.374"/>
	<rect x="58.112" y="362.725" style="fill:#597B37;" width="21.695" height="5.357"/>
</g>
<g>
	<rect x="33.587" y="368.604" style="fill:#754C29;" width="4.93" height="28.498"/>
	<rect x="32.873" y="358.329" style="fill:#597B37;" width="5.277" height="28.938"/>
	<rect x="30.326" y="363.677" style="fill:#597B37;" width="10.373" height="23.276"/>
	<rect x="27.777" y="369.653" style="fill:#597B37;" width="15.287" height="16.986"/>
	<rect x="25.958" y="375.944" style="fill:#597B37;" width="20.018" height="11.009"/>
	<rect x="23.41" y="380.977" style="fill:#597B37;" width="25.479" height="6.291"/>
</g>
<g>
	<rect x="528.115" y="363.886" style="fill:#754C29;" width="5.322" height="30.767"/>
	<rect x="527.344" y="352.794" style="fill:#597B37;" width="5.697" height="31.242"/>
	<rect x="524.595" y="358.567" style="fill:#597B37;" width="11.199" height="25.129"/>
	<rect x="521.843" y="365.019" style="fill:#597B37;" width="16.505" height="18.338"/>
	<rect x="519.879" y="371.811" style="fill:#597B37;" width="21.612" height="11.885"/>
	<rect x="517.128" y="377.244" style="fill:#597B37;" width="27.508" height="6.792"/>
</g>
</svg>
