<?xml version="1.0" encoding="utf-8"?>
<!-- Generator: Adobe Illustrator 19.1.0, SVG Export Plug-In . SVG Version: 6.00 Build 0)  -->
<svg version="1.1" id="Layer_1" xmlns="http://www.w3.org/2000/svg" xmlns:xlink="http://www.w3.org/1999/xlink" x="0px" y="0px"
	 viewBox="-137 94.1 566.9 408.2" style="enable-background:new -137 94.1 566.9 408.2;" xml:space="preserve">
<style type="text/css">
	.st0{fill:#754C29;}
	.st1{fill:#597B37;}
	.st2{fill:#7F8C8D;stroke:#FFFFFF;stroke-miterlimit:10;}
	.st3{fill:#FFFFFF;}
	.st4{fill:#D1D3D4;stroke:#FFFFFF;stroke-miterlimit:10;}
	.st5{fill:#FFFFFF;stroke:#FFFFFF;stroke-miterlimit:10;}
	.st6{fill:#F1F2F2;}
	.st7{fill:#BCBEC0;stroke:#FFFFFF;stroke-miterlimit:10;}
	.st8{fill:#A7A9AC;stroke:#FFFFFF;stroke-miterlimit:10;}
	.st9{fill:#7F8C8D;}
</style>
<g>
	<rect x="150.1" y="447.1" class="st0" width="4.2" height="24.3"/>
	<rect x="149.5" y="438.3" class="st1" width="4.5" height="24.6"/>
	<rect x="147.3" y="442.9" class="st1" width="8.8" height="19.8"/>
	<rect x="145.2" y="448" class="st1" width="13" height="14.5"/>
	<rect x="143.6" y="453.3" class="st1" width="17" height="9.4"/>
	<rect x="141.4" y="457.6" class="st1" width="21.7" height="5.4"/>
</g>
<rect x="357.2" y="442" class="st2" width="5.8" height="5.8"/>
<rect x="362.7" y="442" class="st2" width="5.8" height="5.8"/>
<rect x="357.1" y="436.2" class="st2" width="5.8" height="5.8"/>
<g>
	<rect x="94.2" y="449.6" class="st3" width="48.7" height="42.1"/>
	<rect x="139.8" y="445.2" class="st4" width="4.4" height="4.4"/>
	<rect x="135.5" y="445.2" class="st4" width="4.4" height="4.4"/>
	<rect x="131.1" y="445.2" class="st4" width="4.4" height="4.4"/>
	<rect x="126.7" y="445.2" class="st4" width="4.4" height="4.4"/>
	<rect x="122.3" y="445.2" class="st4" width="4.4" height="4.4"/>
	<rect x="118.1" y="445.2" class="st4" width="4.4" height="4.4"/>
	<rect x="113.8" y="445.2" class="st4" width="4.4" height="4.4"/>
	<rect x="109.4" y="445.2" class="st4" width="4.4" height="4.4"/>
	<rect x="105" y="445.2" class="st4" width="4.4" height="4.4"/>
	<rect x="100.6" y="445.2" class="st4" width="4.4" height="4.4"/>
	<rect x="96.2" y="445.2" class="st4" width="4.4" height="4.4"/>
	<rect x="92.1" y="445.2" class="st4" width="4.4" height="4.4"/>
	<rect x="135.6" y="440.8" class="st4" width="4.4" height="4.4"/>
	<rect x="131.2" y="440.8" class="st4" width="4.4" height="4.4"/>
	<rect x="126.8" y="440.8" class="st4" width="4.4" height="4.4"/>
	<rect x="122.4" y="440.8" class="st4" width="4.4" height="4.4"/>
	<rect x="118.2" y="440.8" class="st4" width="4.4" height="4.4"/>
	<rect x="113.9" y="440.8" class="st4" width="4.4" height="4.4"/>
	<rect x="109.5" y="440.8" class="st4" width="4.4" height="4.4"/>
	<rect x="105.1" y="440.8" class="st4" width="4.4" height="4.4"/>
	<rect x="100.7" y="440.8" class="st4" width="4.4" height="4.4"/>
	<rect x="96.3" y="440.8" class="st4" width="4.4" height="4.4"/>
	<rect x="131.2" y="436.4" class="st4" width="4.4" height="4.4"/>
	<rect x="126.8" y="436.4" class="st4" width="4.4" height="4.4"/>
	<rect x="122.4" y="436.4" class="st4" width="4.4" height="4.4"/>
	<rect x="118.2" y="436.4" class="st4" width="4.4" height="4.4"/>
	<rect x="113.9" y="436.4" class="st4" width="4.4" height="4.4"/>
	<rect x="109.5" y="436.4" class="st4" width="4.4" height="4.4"/>
	<rect x="105.1" y="436.4" class="st4" width="4.4" height="4.4"/>
	<rect x="100.7" y="436.4" class="st4" width="4.4" height="4.4"/>
	<rect x="126.8" y="432" class="st4" width="4.4" height="4.4"/>
	<rect x="122.4" y="432" class="st4" width="4.4" height="4.4"/>
	<rect x="118.2" y="432" class="st4" width="4.4" height="4.4"/>
	<rect x="113.9" y="432" class="st4" width="4.4" height="4.4"/>
	<rect x="109.5" y="432" class="st4" width="4.4" height="4.4"/>
	<rect x="105.1" y="432" class="st4" width="4.4" height="4.4"/>
	<rect x="122.3" y="427.7" class="st4" width="4.4" height="4.4"/>
	<rect x="118.1" y="427.7" class="st4" width="4.4" height="4.4"/>
	<rect x="113.8" y="427.7" class="st4" width="4.4" height="4.4"/>
	<rect x="109.4" y="427.7" class="st4" width="4.4" height="4.4"/>
	<rect x="118.2" y="423.3" class="st5" width="4.4" height="4.4"/>
	<rect x="113.9" y="423.3" class="st5" width="4.4" height="4.4"/>
	<rect x="115.9" y="418.9" class="st5" width="4.4" height="4.4"/>
</g>
<rect x="125" y="464.7" class="st6" width="10.1" height="27"/>
<g>
	<rect x="59.8" y="452.9" class="st3" width="48.7" height="42.1"/>
	<rect x="105.4" y="448.5" class="st7" width="4.4" height="4.4"/>
	<rect x="101" y="448.5" class="st7" width="4.4" height="4.4"/>
	<rect x="96.6" y="448.5" class="st7" width="4.4" height="4.4"/>
	<rect x="92.2" y="448.5" class="st7" width="4.4" height="4.4"/>
	<rect x="87.9" y="448.5" class="st7" width="4.4" height="4.4"/>
	<rect x="83.7" y="448.5" class="st7" width="4.4" height="4.4"/>
	<rect x="79.3" y="448.5" class="st7" width="4.4" height="4.4"/>
	<rect x="74.9" y="448.5" class="st7" width="4.4" height="4.4"/>
	<rect x="70.6" y="448.5" class="st7" width="4.4" height="4.4"/>
	<rect x="66.2" y="448.5" class="st7" width="4.4" height="4.4"/>
	<rect x="61.8" y="448.5" class="st7" width="4.4" height="4.4"/>
	<rect x="57.6" y="448.5" class="st7" width="4.4" height="4.4"/>
	<rect x="101.1" y="444.1" class="st7" width="4.4" height="4.4"/>
	<rect x="96.7" y="444.1" class="st7" width="4.4" height="4.4"/>
	<rect x="92.3" y="444.1" class="st7" width="4.4" height="4.4"/>
	<rect x="88" y="444.1" class="st7" width="4.4" height="4.4"/>
	<rect x="83.8" y="444.1" class="st7" width="4.4" height="4.4"/>
	<rect x="79.4" y="444.1" class="st7" width="4.4" height="4.4"/>
	<rect x="75" y="444.1" class="st7" width="4.4" height="4.4"/>
	<rect x="70.6" y="444.1" class="st7" width="4.4" height="4.4"/>
	<rect x="66.3" y="444.1" class="st7" width="4.4" height="4.4"/>
	<rect x="61.9" y="444.1" class="st7" width="4.4" height="4.4"/>
	<rect x="96.7" y="439.7" class="st7" width="4.4" height="4.4"/>
	<rect x="92.3" y="439.7" class="st7" width="4.4" height="4.4"/>
	<rect x="88" y="439.7" class="st7" width="4.4" height="4.4"/>
	<rect x="83.8" y="439.7" class="st7" width="4.4" height="4.4"/>
	<rect x="79.4" y="439.7" class="st7" width="4.4" height="4.4"/>
	<rect x="75" y="439.7" class="st7" width="4.4" height="4.4"/>
	<rect x="70.6" y="439.7" class="st7" width="4.4" height="4.4"/>
	<rect x="66.3" y="439.7" class="st7" width="4.4" height="4.4"/>
	<rect x="92.3" y="435.3" class="st7" width="4.4" height="4.4"/>
	<rect x="88" y="435.3" class="st7" width="4.4" height="4.4"/>
	<rect x="83.8" y="435.3" class="st7" width="4.4" height="4.4"/>
	<rect x="79.4" y="435.3" class="st7" width="4.4" height="4.4"/>
	<rect x="75" y="435.3" class="st7" width="4.4" height="4.4"/>
	<rect x="70.6" y="435.3" class="st7" width="4.4" height="4.4"/>
	<rect x="87.9" y="431" class="st7" width="4.4" height="4.4"/>
	<rect x="83.7" y="431" class="st7" width="4.4" height="4.4"/>
	<rect x="79.3" y="431" class="st7" width="4.4" height="4.4"/>
	<rect x="74.9" y="431" class="st7" width="4.4" height="4.4"/>
	<rect x="83.8" y="426.6" class="st5" width="4.4" height="4.4"/>
	<rect x="79.4" y="426.6" class="st5" width="4.4" height="4.4"/>
	<rect x="81.5" y="422.2" class="st5" width="4.4" height="4.4"/>
</g>
<rect x="91.6" y="468" class="st6" width="10.1" height="27"/>
<g>
	<rect x="4.4" y="448.8" class="st3" width="59.1" height="51.1"/>
	<rect x="59.8" y="443.5" class="st8" width="5.3" height="5.3"/>
	<rect x="54.5" y="443.5" class="st8" width="5.3" height="5.3"/>
	<rect x="49.1" y="443.5" class="st8" width="5.3" height="5.3"/>
	<rect x="43.8" y="443.5" class="st8" width="5.3" height="5.3"/>
	<rect x="38.5" y="443.5" class="st8" width="5.3" height="5.3"/>
	<rect x="33.4" y="443.5" class="st8" width="5.3" height="5.3"/>
	<rect x="28.1" y="443.5" class="st8" width="5.3" height="5.3"/>
	<rect x="22.8" y="443.5" class="st8" width="5.3" height="5.3"/>
	<rect x="17.5" y="443.5" class="st8" width="5.3" height="5.3"/>
	<rect x="12.2" y="443.5" class="st8" width="5.3" height="5.3"/>
	<rect x="6.8" y="443.5" class="st8" width="5.3" height="5.3"/>
	<rect x="1.8" y="443.5" class="st8" width="5.3" height="5.3"/>
	<rect x="54.6" y="438.1" class="st8" width="5.3" height="5.3"/>
	<rect x="49.3" y="438.1" class="st8" width="5.3" height="5.3"/>
	<rect x="43.9" y="438.1" class="st8" width="5.3" height="5.3"/>
	<rect x="38.6" y="438.1" class="st8" width="5.3" height="5.3"/>
	<rect x="33.5" y="438.1" class="st8" width="5.3" height="5.3"/>
	<rect x="28.2" y="438.1" class="st8" width="5.3" height="5.3"/>
	<rect x="22.9" y="438.1" class="st8" width="5.3" height="5.3"/>
	<rect x="17.6" y="438.1" class="st8" width="5.3" height="5.3"/>
	<rect x="12.3" y="438.1" class="st8" width="5.3" height="5.3"/>
	<rect x="7" y="438.1" class="st8" width="5.3" height="5.3"/>
	<rect x="49.3" y="432.8" class="st8" width="5.3" height="5.3"/>
	<rect x="43.9" y="432.8" class="st8" width="5.3" height="5.3"/>
	<rect x="38.6" y="432.8" class="st8" width="5.3" height="5.3"/>
	<rect x="33.5" y="432.8" class="st8" width="5.3" height="5.3"/>
	<rect x="28.2" y="432.8" class="st8" width="5.3" height="5.3"/>
	<rect x="22.9" y="432.8" class="st8" width="5.3" height="5.3"/>
	<rect x="17.6" y="432.8" class="st8" width="5.3" height="5.3"/>
	<rect x="12.3" y="432.8" class="st8" width="5.3" height="5.3"/>
	<rect x="43.9" y="427.5" class="st8" width="5.3" height="5.3"/>
	<rect x="38.6" y="427.5" class="st8" width="5.3" height="5.3"/>
	<rect x="33.5" y="427.5" class="st8" width="5.3" height="5.3"/>
	<rect x="28.2" y="427.5" class="st8" width="5.3" height="5.3"/>
	<rect x="22.9" y="427.5" class="st8" width="5.3" height="5.3"/>
	<rect x="17.6" y="427.5" class="st8" width="5.3" height="5.3"/>
	<rect x="38.5" y="422.2" class="st8" width="5.3" height="5.3"/>
	<rect x="33.4" y="422.2" class="st8" width="5.3" height="5.3"/>
	<rect x="28.1" y="422.2" class="st8" width="5.3" height="5.3"/>
	<rect x="22.8" y="422.2" class="st8" width="5.3" height="5.3"/>
	<rect x="33.5" y="416.9" class="st5" width="5.3" height="5.3"/>
	<rect x="28.2" y="416.9" class="st5" width="5.3" height="5.3"/>
	<rect x="30.8" y="411.6" class="st5" width="5.3" height="5.3"/>
</g>
<rect x="-48.7" y="447.8" class="st3" width="64.4" height="55.7"/>
<rect x="63.5" y="494.1" class="st9" width="44.9" height="11.5"/>
<rect x="15.4" y="498.5" class="st9" width="59.1" height="7.1"/>
<rect x="11.6" y="442" class="st2" width="5.8" height="5.8"/>
<rect x="5.9" y="442" class="st2" width="5.8" height="5.8"/>
<rect x="0.1" y="442" class="st2" width="5.8" height="5.8"/>
<rect x="-5.7" y="442" class="st2" width="5.8" height="5.8"/>
<rect x="-11.5" y="442" class="st2" width="5.8" height="5.8"/>
<rect x="-17.1" y="442" class="st2" width="5.8" height="5.8"/>
<rect x="-22.9" y="442" class="st2" width="5.8" height="5.8"/>
<rect x="-28.7" y="442" class="st2" width="5.8" height="5.8"/>
<rect x="-34.4" y="442" class="st2" width="5.8" height="5.8"/>
<rect x="-40.2" y="442" class="st2" width="5.8" height="5.8"/>
<rect x="-46" y="442" class="st2" width="5.8" height="5.8"/>
<rect x="-51.6" y="442" class="st2" width="5.8" height="5.8"/>
<rect x="6" y="436.2" class="st2" width="5.8" height="5.8"/>
<rect x="0.2" y="436.2" class="st2" width="5.8" height="5.8"/>
<rect x="-5.6" y="436.2" class="st2" width="5.8" height="5.8"/>
<rect x="-11.4" y="436.2" class="st2" width="5.8" height="5.8"/>
<rect x="-16.9" y="436.2" class="st2" width="5.8" height="5.8"/>
<rect x="-22.7" y="436.2" class="st2" width="5.8" height="5.8"/>
<rect x="-28.5" y="436.2" class="st2" width="5.8" height="5.8"/>
<rect x="-34.3" y="436.2" class="st2" width="5.8" height="5.8"/>
<rect x="-40.1" y="436.2" class="st2" width="5.8" height="5.8"/>
<rect x="-45.9" y="436.2" class="st2" width="5.8" height="5.8"/>
<rect x="0.2" y="430.4" class="st2" width="5.8" height="5.8"/>
<rect x="-5.6" y="430.4" class="st2" width="5.8" height="5.8"/>
<rect x="-11.4" y="430.4" class="st2" width="5.8" height="5.8"/>
<rect x="-16.9" y="430.4" class="st2" width="5.8" height="5.8"/>
<rect x="-22.7" y="430.4" class="st2" width="5.8" height="5.8"/>
<rect x="-28.5" y="430.4" class="st2" width="5.8" height="5.8"/>
<rect x="-34.3" y="430.4" class="st2" width="5.8" height="5.8"/>
<rect x="-40.1" y="430.4" class="st2" width="5.8" height="5.8"/>
<rect x="-5.6" y="424.6" class="st2" width="5.8" height="5.8"/>
<rect x="-11.4" y="424.6" class="st2" width="5.8" height="5.8"/>
<rect x="-16.9" y="424.6" class="st2" width="5.8" height="5.8"/>
<rect x="-22.7" y="424.6" class="st2" width="5.8" height="5.8"/>
<rect x="-28.5" y="424.6" class="st2" width="5.8" height="5.8"/>
<rect x="-34.3" y="424.6" class="st2" width="5.8" height="5.8"/>
<rect x="-11.5" y="418.8" class="st2" width="5.8" height="5.8"/>
<rect x="-17.1" y="418.8" class="st2" width="5.8" height="5.8"/>
<rect x="-22.9" y="418.8" class="st2" width="5.8" height="5.8"/>
<rect x="-28.7" y="418.8" class="st2" width="5.8" height="5.8"/>
<rect x="-16.9" y="413" class="st5" width="5.8" height="5.8"/>
<rect x="-22.7" y="413" class="st5" width="5.8" height="5.8"/>
<rect x="-20" y="407.2" class="st5" width="5.8" height="5.8"/>
<rect x="-8.5" y="470.7" class="st6" width="12.3" height="32.8"/>
<rect x="43" y="465.4" class="st6" width="11.6" height="30.9"/>
<rect x="108.5" y="490.9" class="st9" width="100" height="14.8"/>
<g>
	<rect x="174" y="449.6" class="st3" width="48.7" height="42.1"/>
	<rect x="172.7" y="445.2" class="st4" width="4.4" height="4.4"/>
	<rect x="177.1" y="445.2" class="st4" width="4.4" height="4.4"/>
	<rect x="181.5" y="445.2" class="st4" width="4.4" height="4.4"/>
	<rect x="185.9" y="445.2" class="st4" width="4.4" height="4.4"/>
	<rect x="190.3" y="445.2" class="st4" width="4.4" height="4.4"/>
	<rect x="194.4" y="445.2" class="st4" width="4.4" height="4.4"/>
	<rect x="198.8" y="445.2" class="st4" width="4.4" height="4.4"/>
	<rect x="203.2" y="445.2" class="st4" width="4.4" height="4.4"/>
	<rect x="207.6" y="445.2" class="st4" width="4.4" height="4.4"/>
	<rect x="212" y="445.2" class="st4" width="4.4" height="4.4"/>
	<rect x="216.3" y="445.2" class="st4" width="4.4" height="4.4"/>
	<rect x="220.5" y="445.2" class="st4" width="4.4" height="4.4"/>
	<rect x="177" y="440.8" class="st4" width="4.4" height="4.4"/>
	<rect x="181.4" y="440.8" class="st4" width="4.4" height="4.4"/>
	<rect x="185.8" y="440.8" class="st4" width="4.4" height="4.4"/>
	<rect x="190.2" y="440.8" class="st4" width="4.4" height="4.4"/>
	<rect x="194.3" y="440.8" class="st4" width="4.4" height="4.4"/>
	<rect x="198.7" y="440.8" class="st4" width="4.4" height="4.4"/>
	<rect x="203.1" y="440.8" class="st4" width="4.4" height="4.4"/>
	<rect x="207.5" y="440.8" class="st4" width="4.4" height="4.4"/>
	<rect x="211.9" y="440.8" class="st4" width="4.4" height="4.4"/>
	<rect x="216.2" y="440.8" class="st4" width="4.4" height="4.4"/>
	<rect x="181.4" y="436.4" class="st4" width="4.4" height="4.4"/>
	<rect x="185.8" y="436.4" class="st4" width="4.4" height="4.4"/>
	<rect x="190.2" y="436.4" class="st4" width="4.4" height="4.4"/>
	<rect x="194.3" y="436.4" class="st4" width="4.4" height="4.4"/>
	<rect x="198.7" y="436.4" class="st4" width="4.4" height="4.4"/>
	<rect x="203.1" y="436.4" class="st4" width="4.4" height="4.4"/>
	<rect x="207.5" y="436.4" class="st4" width="4.4" height="4.4"/>
	<rect x="211.9" y="436.4" class="st4" width="4.4" height="4.4"/>
	<rect x="185.8" y="432" class="st4" width="4.4" height="4.4"/>
	<rect x="190.2" y="432" class="st4" width="4.4" height="4.4"/>
	<rect x="194.3" y="432" class="st4" width="4.4" height="4.4"/>
	<rect x="198.7" y="432" class="st4" width="4.4" height="4.4"/>
	<rect x="203.1" y="432" class="st4" width="4.4" height="4.4"/>
	<rect x="207.5" y="432" class="st4" width="4.4" height="4.4"/>
	<rect x="190.3" y="427.7" class="st4" width="4.4" height="4.4"/>
	<rect x="194.4" y="427.7" class="st4" width="4.4" height="4.4"/>
	<rect x="198.8" y="427.7" class="st4" width="4.4" height="4.4"/>
	<rect x="203.2" y="427.7" class="st4" width="4.4" height="4.4"/>
	<rect x="194.3" y="423.3" class="st5" width="4.4" height="4.4"/>
	<rect x="198.7" y="423.3" class="st5" width="4.4" height="4.4"/>
	<rect x="196.6" y="418.9" class="st5" width="4.4" height="4.4"/>
</g>
<rect x="181.8" y="464.7" class="st6" width="10.1" height="27"/>
<g>
	<rect x="208.5" y="452.9" class="st3" width="48.7" height="42.1"/>
	<rect x="207.2" y="448.5" class="st7" width="4.4" height="4.4"/>
	<rect x="211.6" y="448.5" class="st7" width="4.4" height="4.4"/>
	<rect x="215.9" y="448.5" class="st7" width="4.4" height="4.4"/>
	<rect x="220.3" y="448.5" class="st7" width="4.4" height="4.4"/>
	<rect x="224.7" y="448.5" class="st7" width="4.4" height="4.4"/>
	<rect x="228.9" y="448.5" class="st7" width="4.4" height="4.4"/>
	<rect x="233.3" y="448.5" class="st7" width="4.4" height="4.4"/>
	<rect x="237.6" y="448.5" class="st7" width="4.4" height="4.4"/>
	<rect x="242" y="448.5" class="st7" width="4.4" height="4.4"/>
	<rect x="246.4" y="448.5" class="st7" width="4.4" height="4.4"/>
	<rect x="250.8" y="448.5" class="st7" width="4.4" height="4.4"/>
	<rect x="255" y="448.5" class="st7" width="4.4" height="4.4"/>
	<rect x="211.5" y="444.1" class="st7" width="4.4" height="4.4"/>
	<rect x="215.9" y="444.1" class="st7" width="4.4" height="4.4"/>
	<rect x="220.2" y="444.1" class="st7" width="4.4" height="4.4"/>
	<rect x="224.6" y="444.1" class="st7" width="4.4" height="4.4"/>
	<rect x="228.8" y="444.1" class="st7" width="4.4" height="4.4"/>
	<rect x="233.2" y="444.1" class="st7" width="4.4" height="4.4"/>
	<rect x="237.5" y="444.1" class="st7" width="4.4" height="4.4"/>
	<rect x="241.9" y="444.1" class="st7" width="4.4" height="4.4"/>
	<rect x="246.3" y="444.1" class="st7" width="4.4" height="4.4"/>
	<rect x="250.7" y="444.1" class="st7" width="4.4" height="4.4"/>
	<rect x="215.9" y="439.7" class="st7" width="4.4" height="4.4"/>
	<rect x="220.2" y="439.7" class="st7" width="4.4" height="4.4"/>
	<rect x="224.6" y="439.7" class="st7" width="4.4" height="4.4"/>
	<rect x="228.8" y="439.7" class="st7" width="4.4" height="4.4"/>
	<rect x="233.2" y="439.7" class="st7" width="4.4" height="4.4"/>
	<rect x="237.5" y="439.7" class="st7" width="4.4" height="4.4"/>
	<rect x="241.9" y="439.7" class="st7" width="4.4" height="4.4"/>
	<rect x="246.3" y="439.7" class="st7" width="4.4" height="4.4"/>
	<rect x="220.2" y="435.3" class="st7" width="4.4" height="4.4"/>
	<rect x="224.6" y="435.3" class="st7" width="4.4" height="4.4"/>
	<rect x="228.8" y="435.3" class="st7" width="4.4" height="4.4"/>
	<rect x="233.2" y="435.3" class="st7" width="4.4" height="4.4"/>
	<rect x="237.5" y="435.3" class="st7" width="4.4" height="4.4"/>
	<rect x="241.9" y="435.3" class="st7" width="4.4" height="4.4"/>
	<rect x="224.7" y="431" class="st7" width="4.4" height="4.4"/>
	<rect x="228.9" y="431" class="st7" width="4.4" height="4.4"/>
	<rect x="233.3" y="431" class="st7" width="4.4" height="4.4"/>
	<rect x="237.6" y="431" class="st7" width="4.4" height="4.4"/>
	<rect x="228.8" y="426.6" class="st5" width="4.4" height="4.4"/>
	<rect x="233.2" y="426.6" class="st5" width="4.4" height="4.4"/>
	<rect x="231.1" y="422.2" class="st5" width="4.4" height="4.4"/>
</g>
<rect x="215.3" y="468" class="st6" width="10.1" height="27"/>
<g>
	<rect x="253.4" y="448.8" class="st3" width="59.1" height="51.1"/>
	<rect x="251.9" y="443.5" class="st8" width="5.3" height="5.3"/>
	<rect x="257.2" y="443.5" class="st8" width="5.3" height="5.3"/>
	<rect x="262.5" y="443.5" class="st8" width="5.3" height="5.3"/>
	<rect x="267.8" y="443.5" class="st8" width="5.3" height="5.3"/>
	<rect x="273.1" y="443.5" class="st8" width="5.3" height="5.3"/>
	<rect x="278.2" y="443.5" class="st8" width="5.3" height="5.3"/>
	<rect x="283.5" y="443.5" class="st8" width="5.3" height="5.3"/>
	<rect x="288.8" y="443.5" class="st8" width="5.3" height="5.3"/>
	<rect x="294.2" y="443.5" class="st8" width="5.3" height="5.3"/>
	<rect x="299.5" y="443.5" class="st8" width="5.3" height="5.3"/>
	<rect x="304.8" y="443.5" class="st8" width="5.3" height="5.3"/>
	<rect x="309.9" y="443.5" class="st8" width="5.3" height="5.3"/>
	<rect x="257.1" y="438.1" class="st8" width="5.3" height="5.3"/>
	<rect x="262.4" y="438.1" class="st8" width="5.3" height="5.3"/>
	<rect x="267.7" y="438.1" class="st8" width="5.3" height="5.3"/>
	<rect x="273" y="438.1" class="st8" width="5.3" height="5.3"/>
	<rect x="278.1" y="438.1" class="st8" width="5.3" height="5.3"/>
	<rect x="283.4" y="438.1" class="st8" width="5.3" height="5.3"/>
	<rect x="288.7" y="438.1" class="st8" width="5.3" height="5.3"/>
	<rect x="294" y="438.1" class="st8" width="5.3" height="5.3"/>
	<rect x="299.4" y="438.1" class="st8" width="5.3" height="5.3"/>
	<rect x="304.7" y="438.1" class="st8" width="5.3" height="5.3"/>
	<rect x="262.4" y="432.8" class="st8" width="5.3" height="5.3"/>
	<rect x="267.7" y="432.8" class="st8" width="5.3" height="5.3"/>
	<rect x="273" y="432.8" class="st8" width="5.3" height="5.3"/>
	<rect x="278.1" y="432.8" class="st8" width="5.3" height="5.3"/>
	<rect x="283.4" y="432.8" class="st8" width="5.3" height="5.3"/>
	<rect x="288.7" y="432.8" class="st8" width="5.3" height="5.3"/>
	<rect x="294" y="432.8" class="st8" width="5.3" height="5.3"/>
	<rect x="299.4" y="432.8" class="st8" width="5.3" height="5.3"/>
	<rect x="267.7" y="427.5" class="st8" width="5.3" height="5.3"/>
	<rect x="273" y="427.5" class="st8" width="5.3" height="5.3"/>
	<rect x="278.1" y="427.5" class="st8" width="5.3" height="5.3"/>
	<rect x="283.4" y="427.5" class="st8" width="5.3" height="5.3"/>
	<rect x="288.7" y="427.5" class="st8" width="5.3" height="5.3"/>
	<rect x="294" y="427.5" class="st8" width="5.3" height="5.3"/>
	<rect x="273.1" y="422.2" class="st8" width="5.3" height="5.3"/>
	<rect x="278.2" y="422.2" class="st8" width="5.3" height="5.3"/>
	<rect x="283.5" y="422.2" class="st8" width="5.3" height="5.3"/>
	<rect x="288.8" y="422.2" class="st8" width="5.3" height="5.3"/>
	<rect x="278.1" y="416.9" class="st5" width="5.3" height="5.3"/>
	<rect x="283.4" y="416.9" class="st5" width="5.3" height="5.3"/>
	<rect x="280.9" y="411.6" class="st5" width="5.3" height="5.3"/>
</g>
<rect x="301.2" y="447.8" class="st3" width="64.4" height="55.7"/>
<rect x="208.5" y="494.1" class="st9" width="44.9" height="11.5"/>
<rect x="242.4" y="498.5" class="st9" width="59.1" height="7.1"/>
<rect x="299.5" y="442" class="st2" width="5.8" height="5.8"/>
<rect x="305.3" y="442" class="st2" width="5.8" height="5.8"/>
<rect x="311.1" y="442" class="st2" width="5.8" height="5.8"/>
<rect x="316.9" y="442" class="st2" width="5.8" height="5.8"/>
<rect x="322.7" y="442" class="st2" width="5.8" height="5.8"/>
<rect x="328.2" y="442" class="st2" width="5.8" height="5.8"/>
<rect x="334" y="442" class="st2" width="5.8" height="5.8"/>
<rect x="339.8" y="442" class="st2" width="5.8" height="5.8"/>
<rect x="345.6" y="442" class="st2" width="5.8" height="5.8"/>
<rect x="351.4" y="442" class="st2" width="5.8" height="5.8"/>
<rect x="305.2" y="436.2" class="st2" width="5.8" height="5.8"/>
<rect x="311" y="436.2" class="st2" width="5.8" height="5.8"/>
<rect x="316.8" y="436.2" class="st2" width="5.8" height="5.8"/>
<rect x="322.6" y="436.2" class="st2" width="5.8" height="5.8"/>
<rect x="328.1" y="436.2" class="st2" width="5.8" height="5.8"/>
<rect x="333.9" y="436.2" class="st2" width="5.8" height="5.8"/>
<rect x="339.7" y="436.2" class="st2" width="5.8" height="5.8"/>
<rect x="345.5" y="436.2" class="st2" width="5.8" height="5.8"/>
<rect x="351.3" y="436.2" class="st2" width="5.8" height="5.8"/>
<rect x="311" y="430.4" class="st2" width="5.8" height="5.8"/>
<rect x="316.8" y="430.4" class="st2" width="5.8" height="5.8"/>
<rect x="322.6" y="430.4" class="st2" width="5.8" height="5.8"/>
<rect x="328.1" y="430.4" class="st2" width="5.8" height="5.8"/>
<rect x="333.9" y="430.4" class="st2" width="5.8" height="5.8"/>
<rect x="339.7" y="430.4" class="st2" width="5.8" height="5.8"/>
<rect x="345.5" y="430.4" class="st2" width="5.8" height="5.8"/>
<rect x="351.3" y="430.4" class="st2" width="5.8" height="5.8"/>
<rect x="316.8" y="424.6" class="st2" width="5.8" height="5.8"/>
<rect x="322.6" y="424.6" class="st2" width="5.8" height="5.8"/>
<rect x="328.1" y="424.6" class="st2" width="5.8" height="5.8"/>
<rect x="333.9" y="424.6" class="st2" width="5.8" height="5.8"/>
<rect x="339.7" y="424.6" class="st2" width="5.8" height="5.8"/>
<rect x="345.5" y="424.6" class="st2" width="5.8" height="5.8"/>
<rect x="322.7" y="418.8" class="st2" width="5.8" height="5.8"/>
<rect x="328.2" y="418.8" class="st2" width="5.8" height="5.8"/>
<rect x="334" y="418.8" class="st2" width="5.8" height="5.8"/>
<rect x="339.8" y="418.8" class="st2" width="5.8" height="5.8"/>
<rect x="328.1" y="413" class="st5" width="5.8" height="5.8"/>
<rect x="333.9" y="413" class="st5" width="5.8" height="5.8"/>
<rect x="331.1" y="407.2" class="st5" width="5.8" height="5.8"/>
<rect x="313.2" y="470.7" class="st6" width="12.3" height="32.8"/>
<rect x="262.4" y="465.4" class="st6" width="11.6" height="30.9"/>
<g>
	<rect x="-70.2" y="446.3" class="st0" width="4.2" height="24.3"/>
	<rect x="-70.8" y="437.5" class="st1" width="4.5" height="24.6"/>
	<rect x="-73" y="442.1" class="st1" width="8.8" height="19.8"/>
	<rect x="-75.2" y="447.2" class="st1" width="13" height="14.5"/>
	<rect x="-76.7" y="452.5" class="st1" width="17" height="9.4"/>
	<rect x="-78.9" y="456.8" class="st1" width="21.7" height="5.4"/>
</g>
<g>
	<rect x="-103.4" y="462.7" class="st0" width="4.9" height="28.5"/>
	<rect x="-104.1" y="452.4" class="st1" width="5.3" height="28.9"/>
	<rect x="-106.7" y="457.8" class="st1" width="10.4" height="23.3"/>
	<rect x="-109.2" y="463.7" class="st1" width="15.3" height="17"/>
	<rect x="-111" y="470" class="st1" width="20" height="11"/>
	<rect x="-113.6" y="475.1" class="st1" width="25.5" height="6.3"/>
</g>
<g>
	<rect x="391.1" y="458" class="st0" width="5.3" height="30.8"/>
	<rect x="390.3" y="446.9" class="st1" width="5.7" height="31.2"/>
	<rect x="387.6" y="452.7" class="st1" width="11.2" height="25.1"/>
	<rect x="384.8" y="459.1" class="st1" width="16.5" height="18.3"/>
	<rect x="382.9" y="465.9" class="st1" width="21.6" height="11.9"/>
	<rect x="380.1" y="471.3" class="st1" width="27.5" height="6.8"/>
</g>
</svg>
