<?xml version="1.0" encoding="iso-8859-1"?>
<!-- Generator: Adobe Illustrator 19.1.0, SVG Export Plug-In . SVG Version: 6.00 Build 0)  -->
<svg version="1.1" id="Layer_1" xmlns="http://www.w3.org/2000/svg" xmlns:xlink="http://www.w3.org/1999/xlink" x="0px" y="0px"
	 viewBox="0 0 118 171.017" style="enable-background:new 0 0 118 171.017;" xml:space="preserve">
<g>
	<rect x="18.407" y="53.016" style="fill:#EEEFEF;" width="27.163" height="90.577"/>
	<rect x="23.628" y="46.297" style="fill:#404041;" width="20.301" height="7.253"/>
	<rect x="26.823" y="27.667" style="fill:#CDA18B;" width="20.003" height="26.289"/>
	<rect x="45.054" y="86.938" style="fill:#CDA18B;" width="5.505" height="5.907"/>
	<rect x="49.113" y="87.912" style="fill:#CDA18B;" width="1.738" height="1.738"/>
	<rect x="45.418" y="54.708" style="fill:#CDA18B;" width="5.434" height="33.057"/>
	<rect x="35.09" y="143.593" style="fill:#CDA18B;" width="5.507" height="4.929"/>
	<rect x="23.775" y="143.593" style="fill:#CDA18B;" width="5.508" height="4.929"/>
	<rect x="16.21" y="54.368" style="fill:#CDA18B;" width="5.44" height="39.438"/>
	<polygon style="fill:#404041;" points="23.628,25.539 23.628,20.61 45.091,20.61 45.091,25.539 47.992,25.539 49.541,25.634 
		50.892,25.634 50.892,58.888 47.992,58.888 45.667,58.888 39.872,58.888 39.872,47.001 45.667,47.001 45.667,28.439 29.139,28.439 
		29.139,58.599 18.406,58.599 18.406,28.439 18.406,25.539 	"/>
	<polygon style="fill:#EAEBEC;" points="29.32,149.634 29.32,148.249 26.551,148.249 26.551,146.588 23.231,146.588 23.231,153.513 
		25.447,153.513 25.447,150.878 27.798,150.878 27.798,153.513 29.042,153.513 29.32,153.513 32.369,153.513 32.369,149.634 	"/>
	<polygon style="fill:#EAEBEC;" points="40.813,149.634 40.813,148.249 38.047,148.249 38.047,146.588 34.72,146.588 34.72,153.513 
		36.939,153.513 36.939,150.878 39.291,150.878 39.291,153.513 40.536,153.513 40.813,153.513 43.861,153.513 43.861,149.634 	"/>
	<polygon style="fill:#231F20;" points="70.86,149.072 70.86,97.964 66.017,97.964 66.017,53.496 71.036,53.496 71.036,48.117 
		96.859,48.117 96.859,53.496 101.521,53.496 101.521,97.964 96.407,97.964 96.407,149.072 101.521,149.072 101.521,153.915 
		96.407,153.915 94.528,153.915 86.189,153.915 86.189,102.95 81.078,102.95 81.078,153.915 72.739,153.915 70.86,153.915 
		65.745,153.915 65.745,149.072 	"/>
	<rect x="79.46" y="43.59" style="fill:#EFBEB3;" width="9.686" height="10.084"/>
	<rect x="73.996" y="24.621" style="fill:#EFBEB3;" width="20.44" height="20.446"/>
	<rect x="89.145" y="24.267" style="fill:#603813;" width="5.383" height="16.945"/>
	<rect x="69.782" y="24.267" style="fill:#603813;" width="24.745" height="4.305"/>
	<rect x="72.739" y="19.692" style="fill:#603813;" width="17.752" height="5.379"/>
	<polygon style="fill:#FFFFFF;" points="84.157,79.153 79.46,53.133 89.145,53.133 	"/>
	<rect x="96.407" y="97.964" style="fill:#EACBC6;" width="5.114" height="4.571"/>
	<rect x="100.174" y="97.964" style="fill:#FCB912;" width="1.616" height="1.616"/>
	<rect x="65.674" y="97.964" style="fill:#EFBEB3;" width="5.114" height="4.571"/>
	<polygon style="fill:#BCC2C6;" points="83.316,74.25 84.211,79.253 85.582,72.069 86.763,53.095 82.002,53.095 	"/>
</g>
</svg>
